<?xml version="1.0" standalone="no"?>
 <!DOCTYPE svg PUBLIC "-//W3C//DTD SVG 1.1//EN" 
 "http://www.w3.org/Graphics/SVG/1.1/DTD/svg11.dtd"> 
<svg xmlns="http://www.w3.org/2000/svg" version="1.1" 
    width="29.7002cm" height="21.0007cm" viewBox="0 0 116930 82680 ">
<title>SVG Picture created as channel_lm1875-F.SilkS.svg date 2018/04/15 22:40:12 </title>
  <desc>Picture generated by PCBNEW </desc>
<g style="fill:#000000; fill-opacity:1;stroke:#000000; stroke-opacity:1;
stroke-linecap:round; stroke-linejoin:round; "
 transform="translate(0 0) scale(1 1)">
</g>
<g style="fill:#000000; fill-opacity:0.0; 
stroke:#000000; stroke-width:-0.000393701; stroke-opacity:1; 
stroke-linecap:round; stroke-linejoin:round;">
</g>
<g style="fill:#000000; fill-opacity:0.0; 
stroke:#000000; stroke-width:59.0551; stroke-opacity:1; 
stroke-linecap:round; stroke-linejoin:round;">
<path d="M5804 6397
L5748 6369
L5663 6369
L5579 6397
L5523 6453
L5494 6510
L5466 6622
L5466 6706
L5494 6819
L5523 6875
L5579 6931
L5663 6960
L5719 6960
L5804 6931
L5832 6903
L5832 6706
L5719 6706
" />
<path d="M6338 6960
L6338 6650
L6310 6594
L6254 6566
L6141 6566
L6085 6594
" />
<path d="M6338 6931
L6282 6960
L6141 6960
L6085 6931
L6057 6875
L6057 6819
L6085 6763
L6141 6735
L6282 6735
L6338 6706
" />
<path d="M6619 6960
L6619 6566
" />
<path d="M6619 6369
L6591 6397
L6619 6425
L6647 6397
L6619 6369
L6619 6425
" />
<path d="M6901 6566
L6901 6960
" />
<path d="M6901 6622
L6929 6594
L6985 6566
L7069 6566
L7125 6594
L7154 6650
L7154 6960
" />
<path d="M7885 6650
L8335 6650
" />
<path d="M8335 6819
L7885 6819
" />
<path d="M9403 6960
L9206 6678
" />
<path d="M9066 6960
L9066 6369
L9291 6369
L9347 6397
L9375 6425
L9403 6482
L9403 6566
L9375 6622
L9347 6650
L9291 6678
L9066 6678
" />
<path d="M9966 6960
L9628 6960
" />
<path d="M9797 6960
L9797 6369
L9741 6453
L9685 6510
L9628 6538
" />
<path d="M10641 6341
L10134 7100
" />
<path d="M11175 6960
L10978 6678
" />
<path d="M10838 6960
L10838 6369
L11062 6369
L11119 6397
L11147 6425
L11175 6482
L11175 6566
L11147 6622
L11119 6650
L11062 6678
L10838 6678
" />
<path d="M11400 6425
L11428 6397
L11484 6369
L11625 6369
L11681 6397
L11709 6425
L11737 6482
L11737 6538
L11709 6622
L11372 6960
L11737 6960
" />
<path d="M5269 18481
L5269 17581
" />
<path d="M4820 18031
L5719 18031
" />
<path d="M11001 18048
L10101 18048
" />
<path d="M24491 13481
L24519 13397
L24519 13256
L24491 13200
L24462 13172
L24406 13143
L24350 13143
L24294 13172
L24266 13200
L24237 13256
L24209 13368
L24181 13425
L24153 13453
L24097 13481
L24041 13481
L23984 13453
L23956 13425
L23928 13368
L23928 13228
L23956 13143
" />
<path d="M24519 12890
L23928 12890
L23928 12665
L23956 12609
L23984 12581
L24041 12553
L24125 12553
L24181 12581
L24209 12609
L24237 12665
L24237 12890
" />
<path d="M24519 12300
L23928 12300
" />
<path d="M24519 11962
L24181 12215
" />
<path d="M23928 11962
L24266 12300
" />
<path d="M23928 11147
L23928 11034
L23956 10978
L24012 10922
L24125 10894
L24322 10894
L24434 10922
L24491 10978
L24519 11034
L24519 11147
L24491 11203
L24434 11259
L24322 11287
L24125 11287
L24012 11259
L23956 11203
L23928 11147
" />
<path d="M23928 10641
L24406 10641
L24462 10613
L24491 10584
L24519 10528
L24519 10416
L24491 10359
L24462 10331
L24406 10303
L23928 10303
" />
<path d="M23928 10106
L23928 9769
" />
<path d="M24519 9938
L23928 9938
" />
<path d="M15680 18222
L16040 18222
" />
<path d="M16512 18402
L16242 18402
" />
<path d="M16377 18402
L16377 17930
L16332 17997
L16287 18042
L16242 18065
" />
<path d="M16782 18132
L16737 18110
L16715 18087
L16692 18042
L16692 18020
L16715 17975
L16737 17952
L16782 17930
L16872 17930
L16917 17952
L16940 17975
L16962 18020
L16962 18042
L16940 18087
L16917 18110
L16872 18132
L16782 18132
L16737 18155
L16715 18177
L16692 18222
L16692 18312
L16715 18357
L16737 18380
L16782 18402
L16872 18402
L16917 18380
L16940 18357
L16962 18312
L16962 18222
L16940 18177
L16917 18155
L16872 18132
" />
<path d="M17097 17930
L17255 18402
L17412 17930
" />
<path d="M18537 17952
L18492 17930
L18425 17930
L18357 17952
L18312 17997
L18290 18042
L18267 18132
L18267 18200
L18290 18290
L18312 18335
L18357 18380
L18425 18402
L18470 18402
L18537 18380
L18560 18357
L18560 18200
L18470 18200
" />
<path d="M18762 18402
L18762 17930
L19032 18402
L19032 17930
" />
<path d="M19257 18402
L19257 17930
L19370 17930
L19437 17952
L19482 17997
L19505 18042
L19527 18132
L19527 18200
L19505 18290
L19482 18335
L19437 18380
L19370 18402
L19257 18402
" />
<path d="M20449 18222
L20809 18222
" />
<path d="M20629 18402
L20629 18042
" />
<path d="M21282 18402
L21012 18402
" />
<path d="M21147 18402
L21147 17930
L21102 17997
L21057 18042
L21012 18065
" />
<path d="M21552 18132
L21507 18110
L21484 18087
L21462 18042
L21462 18020
L21484 17975
L21507 17952
L21552 17930
L21642 17930
L21687 17952
L21709 17975
L21732 18020
L21732 18042
L21709 18087
L21687 18110
L21642 18132
L21552 18132
L21507 18155
L21484 18177
L21462 18222
L21462 18312
L21484 18357
L21507 18380
L21552 18402
L21642 18402
L21687 18380
L21709 18357
L21732 18312
L21732 18222
L21709 18177
L21687 18155
L21642 18132
" />
<path d="M21867 17930
L22024 18402
L22182 17930
" />
<path d="M15540 17733
L14950 17733
L14950 17508
L14978 17451
L15006 17423
L15062 17395
L15147 17395
L15203 17423
L15231 17451
L15259 17508
L15259 17733
" />
<path d="M14950 17198
L15540 17058
L15118 16945
L15540 16833
L14950 16692
" />
<path d="M15540 16130
L15259 16327
" />
<path d="M15540 16467
L14950 16467
L14950 16242
L14978 16186
L15006 16158
L15062 16130
L15147 16130
L15203 16158
L15231 16186
L15259 16242
L15259 16467
" />
<path d="M15540 15427
L14950 15427
" />
<path d="M15540 15146
L14950 15146
L15540 14808
L14950 14808
" />
</g>
<g style="fill:#000000; fill-opacity:0.0; 
stroke:#000000; stroke-width:78.7402; stroke-opacity:1; 
stroke-linecap:round; stroke-linejoin:round;">
<path d="M15213 1324
L15584 852
" />
<path d="M15213 852
L15584 1324
" />
<path d="M15753 852
L16023 852
" />
<path d="M15854 1324
L15854 717
L15888 649
L15956 615
L16023 615
" />
<path d="M16361 1324
L16293 1290
L16259 1257
L16226 1189
L16226 987
L16259 919
L16293 885
L16361 852
L16462 852
L16529 885
L16563 919
L16597 987
L16597 1189
L16563 1257
L16529 1290
L16462 1324
L16361 1324
" />
<path d="M16901 1324
L16901 852
" />
<path d="M16901 987
L16934 919
L16968 885
L17035 852
L17103 852
" />
<path d="M17339 1324
L17339 852
" />
<path d="M17339 919
L17373 885
L17440 852
L17542 852
L17609 885
L17643 953
L17643 1324
" />
<path d="M17643 953
L17677 885
L17744 852
L17845 852
L17913 885
L17947 953
L17947 1324
" />
<path d="M18217 615
L18655 615
L18419 885
L18520 885
L18588 919
L18622 953
L18655 1020
L18655 1189
L18622 1257
L18588 1290
L18520 1324
L18318 1324
L18250 1290
L18217 1257
" />
<path d="M18959 1257
L18993 1290
L18959 1324
L18925 1290
L18959 1257
L18959 1324
" />
<path d="M19600 1290
L19533 1324
L19398 1324
L19330 1290
L19296 1257
L19263 1189
L19263 987
L19296 919
L19330 885
L19398 852
L19533 852
L19600 885
" />
<path d="M20005 1324
L19938 1290
L19904 1257
L19870 1189
L19870 987
L19904 919
L19938 885
L20005 852
L20106 852
L20174 885
L20208 919
L20241 987
L20241 1189
L20208 1257
L20174 1290
L20106 1324
L20005 1324
" />
<path d="M20545 1324
L20545 852
" />
<path d="M20545 919
L20579 885
L20646 852
L20748 852
L20815 885
L20849 953
L20849 1324
" />
<path d="M20849 953
L20883 885
L20950 852
L21051 852
L21119 885
L21152 953
L21152 1324
" />
<path d="M21996 1122
L22334 1122
" />
<path d="M21929 1324
L22165 615
L22401 1324
" />
<path d="M22637 1324
L22637 852
" />
<path d="M22637 919
L22671 885
L22739 852
L22840 852
L22907 885
L22941 953
L22941 1324
" />
<path d="M22941 953
L22975 885
L23042 852
L23143 852
L23211 885
L23245 953
L23245 1324
" />
<path d="M23582 852
L23582 1560
" />
<path d="M23582 885
L23650 852
L23785 852
L23852 885
L23886 919
L23920 987
L23920 1189
L23886 1257
L23852 1290
L23785 1324
L23650 1324
L23582 1290
" />
<path d="M24325 1324
L24257 1290
L24223 1223
L24223 615
" />
<path d="M24595 1324
L24595 852
" />
<path d="M24595 615
L24561 649
L24595 683
L24628 649
L24595 615
L24595 683
" />
<path d="M24831 852
L25101 852
" />
<path d="M24932 1324
L24932 717
L24966 649
L25033 615
L25101 615
" />
<path d="M25337 1324
L25337 852
" />
<path d="M25337 615
L25303 649
L25337 683
L25371 649
L25337 615
L25337 683
" />
<path d="M25944 1290
L25877 1324
L25742 1324
L25674 1290
L25641 1223
L25641 953
L25674 885
L25742 852
L25877 852
L25944 885
L25978 953
L25978 1020
L25641 1088
" />
<path d="M26282 1324
L26282 852
" />
<path d="M26282 987
L26316 919
L26349 885
L26417 852
L26484 852
" />
<path d="M17086 1993
L17592 1993
" />
<path d="M17289 1690
L17086 2601
" />
<path d="M17525 2297
L17019 2297
" />
<path d="M17322 2601
L17525 1690
" />
<path d="M17761 1757
L18233 2466
" />
<path d="M18233 1757
L17761 2466
" />
<path d="M18740 2095
L18503 2095
" />
<path d="M18503 2466
L18503 1757
L18841 1757
" />
<path d="M19111 2466
L19111 1757
L19381 1757
L19448 1791
L19482 1825
L19516 1892
L19516 1993
L19482 2061
L19448 2095
L19381 2128
L19111 2128
" />
<path d="M20224 2398
L20191 2432
L20089 2466
L20022 2466
L19921 2432
L19853 2365
L19820 2297
L19786 2162
L19786 2061
L19820 1926
L19853 1858
L19921 1791
L20022 1757
L20089 1757
L20191 1791
L20224 1825
" />
<path d="M20764 2095
L20866 2128
L20899 2162
L20933 2230
L20933 2331
L20899 2398
L20866 2432
L20798 2466
L20528 2466
L20528 1757
L20764 1757
L20832 1791
L20866 1825
L20899 1892
L20899 1960
L20866 2027
L20832 2061
L20764 2095
L20528 2095
" />
<path d="M21237 2196
L21777 2196
" />
<path d="M22249 1757
L22317 1757
L22384 1791
L22418 1825
L22452 1892
L22485 2027
L22485 2196
L22452 2331
L22418 2398
L22384 2432
L22317 2466
L22249 2466
L22182 2432
L22148 2398
L22114 2331
L22080 2196
L22080 2027
L22114 1892
L22148 1825
L22182 1791
L22249 1757
" />
<path d="M22924 1757
L22992 1757
L23059 1791
L23093 1825
L23127 1892
L23160 2027
L23160 2196
L23127 2331
L23093 2398
L23059 2432
L22992 2466
L22924 2466
L22857 2432
L22823 2398
L22789 2331
L22755 2196
L22755 2027
L22789 1892
L22823 1825
L22857 1791
L22924 1757
" />
<path d="M23599 1757
L23667 1757
L23734 1791
L23768 1825
L23802 1892
L23835 2027
L23835 2196
L23802 2331
L23768 2398
L23734 2432
L23667 2466
L23599 2466
L23532 2432
L23498 2398
L23464 2331
L23430 2196
L23430 2027
L23464 1892
L23498 1825
L23532 1791
L23599 1757
" />
<path d="M24071 1757
L24510 1757
L24274 2027
L24375 2027
L24443 2061
L24476 2095
L24510 2162
L24510 2331
L24476 2398
L24443 2432
L24375 2466
L24173 2466
L24105 2432
L24071 2398
" />
<path d="M24780 2263
L25118 2263
" />
<path d="M24713 2466
L24949 1757
L25185 2466
" />
</g>
<g style="fill:#000000; fill-opacity:0.0; 
stroke:#000000; stroke-width:59.0551; stroke-opacity:1; 
stroke-linecap:round; stroke-linejoin:round;">
<path d="M0 0
L29921 0
" />
</g>
<g style="fill:#000000; fill-opacity:0.0; 
stroke:#000000; stroke-width:118.11; stroke-opacity:1; 
stroke-linecap:round; stroke-linejoin:round;">
<path d="M27746 9415
L28946 9415
" />
<path d="M28346 8815
L28346 10014
" />
</g>
<g style="fill:#000000; fill-opacity:0.0; 
stroke:#000000; stroke-width:59.0551; stroke-opacity:1; 
stroke-linecap:round; stroke-linejoin:round;">
<path d="M29921 0
L29921 19685
" />
<path d="M0 19685
L29921 19685
" />
<path d="M0 0
L0 19685
" />
</g>
<g style="fill:#000000; fill-opacity:1.0; 
stroke:#000000; stroke-width:0; stroke-opacity:1; 
stroke-linecap:round; stroke-linejoin:round;">
<polyline style="fill-rule:evenodd;"
points="4631,681
4546,804
4904,2315
3732,948
4546,804
4631,681
5222,1160
5283,1184
5316,1262
5289,1333
5222,1363
5145,1321
5127,1262
5155,1190
5222,1160
4631,681
4581,690
3553,872
4883,2422
4361,2970
3945,4113
3603,5369
3248,6262
3312,6314
3679,5395
4021,4139
4430,3012
4891,2509
4854,4449
4974,6350
5049,6380
4932,4433
4967,2538
5900,4587
6228,5470
6304,5768
6309,5914
6381,5949
6383,5752
6303,5443
5973,4552
5022,2467
5836,684
4631,681
" /> 
<polyline style="fill-rule:evenodd;"
points="4631,681
4546,804
4904,2315
3732,948
4546,804
4631,681
5222,1160
5283,1184
5316,1262
5289,1333
5222,1363
5145,1321
5127,1262
5155,1190
5222,1160
4631,681
4581,690
3553,872
4883,2422
4361,2970
3945,4113
3603,5369
3248,6262
3312,6314
3679,5395
4021,4139
4430,3012
4891,2509
4854,4449
4974,6350
5049,6380
4932,4433
4967,2538
5900,4587
6228,5470
6304,5768
6309,5914
6381,5949
6383,5752
6303,5443
5973,4552
5022,2467
5836,684
4631,681
" /> 
</g>
<g style="fill:#000000; fill-opacity:1.0; 
stroke:#000000; stroke-width:59.0551; stroke-opacity:1; 
stroke-linecap:round; stroke-linejoin:round;">
</g>
<g style="fill:#000000; fill-opacity:0.0; 
stroke:#000000; stroke-width:59.0551; stroke-opacity:1; 
stroke-linecap:round; stroke-linejoin:round;">
<path d="M15778 9696
L16578 9696
" />
<path d="M14278 9696
L14678 9696
" />
<path d="M12378 9696
L13128 9696
" />
<path d="M13878 7796
L13878 8246
" />
<path d="M15078 7796
L15078 8246
" />
<path d="M16578 8246
L16578 9696
" />
<path d="M12378 9696
L12378 8246
" />
<path d="M16578 7796
L16578 8246
" />
<path d="M16578 8246
L12378 8246
" />
<path d="M12378 8246
L12378 7796
" />
<path d="M14478 7796
L12378 7796
" />
<path d="M14478 7796
L16578 7796
" />
<path d="M21907 10600
L22307 10600
" />
<path d="M20007 10600
L19507 10600
" />
</g>
<g style="fill:#000000; fill-opacity:0.0; 
stroke:#000000; stroke-width:118.11; stroke-opacity:1; 
stroke-linecap:round; stroke-linejoin:round;">
<path d="M20364 10167
L20364 11061
" />
</g>
<g style="fill:#000000; fill-opacity:0.0; 
stroke:#000000; stroke-width:255.906; stroke-opacity:1; 
stroke-linecap:round; stroke-linejoin:round;">
<path d="M20035 10211
L20035 10998
" />
</g>
<g style="fill:#000000; fill-opacity:0.0; 
stroke:#000000; stroke-width:59.0551; stroke-opacity:1; 
stroke-linecap:round; stroke-linejoin:round;">
<path d="M19907 11100
L19907 10100
" />
<path d="M19907 10100
L21907 10100
" />
<path d="M21907 10100
L21907 11100
" />
<path d="M21907 11100
L19907 11100
" />
</g>
<g style="fill:#000000; fill-opacity:0.0; 
stroke:#000000; stroke-width:255.906; stroke-opacity:1; 
stroke-linecap:round; stroke-linejoin:round;">
<path d="M20219 10203
L20219 10990
" />
</g>
<g style="fill:#000000; fill-opacity:0.0; 
stroke:#000000; stroke-width:59.0551; stroke-opacity:1; 
stroke-linecap:round; stroke-linejoin:round;">
<path d="M19893 12461
L19493 12461
" />
<path d="M21793 12461
L22293 12461
" />
</g>
<g style="fill:#000000; fill-opacity:0.0; 
stroke:#000000; stroke-width:118.11; stroke-opacity:1; 
stroke-linecap:round; stroke-linejoin:round;">
<path d="M21437 12893
L21437 12000
" />
</g>
<g style="fill:#000000; fill-opacity:0.0; 
stroke:#000000; stroke-width:255.906; stroke-opacity:1; 
stroke-linecap:round; stroke-linejoin:round;">
<path d="M21765 12850
L21765 12063
" />
</g>
<g style="fill:#000000; fill-opacity:0.0; 
stroke:#000000; stroke-width:59.0551; stroke-opacity:1; 
stroke-linecap:round; stroke-linejoin:round;">
<path d="M21893 11961
L21893 12961
" />
<path d="M21893 12961
L19893 12961
" />
<path d="M19893 12961
L19893 11961
" />
<path d="M19893 11961
L21893 11961
" />
</g>
<g style="fill:#000000; fill-opacity:0.0; 
stroke:#000000; stroke-width:255.906; stroke-opacity:1; 
stroke-linecap:round; stroke-linejoin:round;">
<path d="M21581 12858
L21581 12071
" />
</g>
<g style="fill:#000000; fill-opacity:0.0; 
stroke:#000000; stroke-width:59.0551; stroke-opacity:1; 
stroke-linecap:round; stroke-linejoin:round;">
<path d="M2118 8870
L4118 8870
" />
<path d="M4118 8870
L4118 9870
" />
<path d="M4118 9870
L2118 9870
" />
<path d="M2118 9870
L2118 8870
" />
<path d="M2118 9370
L1618 9370
" />
<path d="M4118 9370
L4618 9370
" />
<path d="M21661 4594
L19661 4594
" />
<path d="M19661 4594
L19661 3594
" />
<path d="M19661 3594
L21661 3594
" />
<path d="M21661 3594
L21661 4594
" />
<path d="M21661 4094
L22161 4094
" />
<path d="M19661 4094
L19161 4094
" />
<path d="M2181 6665
L4181 6665
" />
<path d="M4181 6665
L4181 7665
" />
<path d="M4181 7665
L2181 7665
" />
<path d="M2181 7665
L2181 6665
" />
<path d="M2181 7165
L1681 7165
" />
<path d="M4181 7165
L4681 7165
" />
<path d="M14669 3098
L12669 3098
" />
<path d="M12669 3098
L12669 2098
" />
<path d="M12669 2098
L14669 2098
" />
<path d="M14669 2098
L14669 3098
" />
<path d="M14669 2598
L15169 2598
" />
<path d="M12669 2598
L12169 2598
" />
<path d="M10677 5066
L8677 5066
" />
<path d="M8677 5066
L8677 4066
" />
<path d="M8677 4066
L10677 4066
" />
<path d="M10677 4066
L10677 5066
" />
<path d="M10677 4566
L11177 4566
" />
<path d="M8677 4566
L8177 4566
" />
</g>
<g style="fill:#000000; fill-opacity:0.0; 
stroke:#000000; stroke-width:78.7402; stroke-opacity:1; 
stroke-linecap:round; stroke-linejoin:round;">
<circle cx="1968.5" cy="17716.5" r="70.9756" /> 
<circle cx="1968.5" cy="17716.5" r="205.518" /> 
</g>
<g style="fill:#000000; fill-opacity:0.0; 
stroke:#000000; stroke-width:118.11; stroke-opacity:1; 
stroke-linecap:round; stroke-linejoin:round;">
<path d="M2842 18448
L2074 17755
" />
</g>
<g style="fill:#000000; fill-opacity:0.0; 
stroke:#000000; stroke-width:59.0551; stroke-opacity:1; 
stroke-linecap:round; stroke-linejoin:round;">
<path d="M1153 18566
L2783 16870
" />
</g>
<g style="fill:#000000; fill-opacity:0.0; 
stroke:#000000; stroke-width:39.3701; stroke-opacity:1; 
stroke-linecap:round; stroke-linejoin:round;">
<path d="M3149 17716
L787 17716
" />
<path d="M1968 18897
L1968 16535
" />
<circle cx="1968.5" cy="17716.5" r="1181.1" /> 
</g>
<g style="fill:#000000; fill-opacity:0.0; 
stroke:#000000; stroke-width:59.0551; stroke-opacity:1; 
stroke-linecap:round; stroke-linejoin:round;">
<path d="M2803 18523
L1125 16901
" />
</g>
<g style="fill:#000000; fill-opacity:0.0; 
stroke:#000000; stroke-width:118.11; stroke-opacity:1; 
stroke-linecap:round; stroke-linejoin:round;">
<path d="M2909 18366
L2287 17818
" />
<path d="M3106 17775
L2169 17783
" />
</g>
<g style="fill:#000000; fill-opacity:0.0; 
stroke:#000000; stroke-width:157.48; stroke-opacity:1; 
stroke-linecap:round; stroke-linejoin:round;">
<path d="M2937 18216
L2456 17834
" />
</g>
<g style="fill:#000000; fill-opacity:0.0; 
stroke:#000000; stroke-width:196.85; stroke-opacity:1; 
stroke-linecap:round; stroke-linejoin:round;">
<path d="M3055 17885
L2614 17877
" />
</g>
<g style="fill:#000000; fill-opacity:0.0; 
stroke:#000000; stroke-width:334.646; stroke-opacity:1; 
stroke-linecap:round; stroke-linejoin:round;">
<path d="M2952 17925
L2862 18200
" />
</g>
<g style="fill:#000000; fill-opacity:0.0; 
stroke:#000000; stroke-width:118.11; stroke-opacity:1; 
stroke-linecap:round; stroke-linejoin:round;">
<path d="M834 17659
L1771 17651
" />
</g>
<g style="fill:#000000; fill-opacity:0.0; 
stroke:#000000; stroke-width:196.85; stroke-opacity:1; 
stroke-linecap:round; stroke-linejoin:round;">
<path d="M885 17549
L1326 17557
" />
</g>
<g style="fill:#000000; fill-opacity:0.0; 
stroke:#000000; stroke-width:118.11; stroke-opacity:1; 
stroke-linecap:round; stroke-linejoin:round;">
<path d="M1098 16986
L1866 17679
" />
<path d="M1031 17069
L1653 17616
" />
</g>
<g style="fill:#000000; fill-opacity:0.0; 
stroke:#000000; stroke-width:157.48; stroke-opacity:1; 
stroke-linecap:round; stroke-linejoin:round;">
<path d="M1003 17218
L1484 17600
" />
</g>
<g style="fill:#000000; fill-opacity:0.0; 
stroke:#000000; stroke-width:334.646; stroke-opacity:1; 
stroke-linecap:round; stroke-linejoin:round;">
<path d="M988 17510
L1078 17234
" />
</g>
<g style="fill:#000000; fill-opacity:0.0; 
stroke:#000000; stroke-width:78.7402; stroke-opacity:1; 
stroke-linecap:round; stroke-linejoin:round;">
<circle cx="1968.5" cy="17716.5" r="606.414" /> 
<circle cx="27952.8" cy="17716.5" r="70.9756" /> 
<circle cx="27952.8" cy="17716.5" r="205.518" /> 
</g>
<g style="fill:#000000; fill-opacity:0.0; 
stroke:#000000; stroke-width:118.11; stroke-opacity:1; 
stroke-linecap:round; stroke-linejoin:round;">
<path d="M28826 18448
L28059 17755
" />
</g>
<g style="fill:#000000; fill-opacity:0.0; 
stroke:#000000; stroke-width:59.0551; stroke-opacity:1; 
stroke-linecap:round; stroke-linejoin:round;">
<path d="M27137 18566
L28767 16870
" />
</g>
<g style="fill:#000000; fill-opacity:0.0; 
stroke:#000000; stroke-width:39.3701; stroke-opacity:1; 
stroke-linecap:round; stroke-linejoin:round;">
<path d="M29133 17716
L26771 17716
" />
<path d="M27952 18897
L27952 16535
" />
<circle cx="27952.8" cy="17716.5" r="1181.1" /> 
</g>
<g style="fill:#000000; fill-opacity:0.0; 
stroke:#000000; stroke-width:59.0551; stroke-opacity:1; 
stroke-linecap:round; stroke-linejoin:round;">
<path d="M28787 18523
L27110 16901
" />
</g>
<g style="fill:#000000; fill-opacity:0.0; 
stroke:#000000; stroke-width:118.11; stroke-opacity:1; 
stroke-linecap:round; stroke-linejoin:round;">
<path d="M28893 18366
L28271 17818
" />
<path d="M29090 17775
L28153 17783
" />
</g>
<g style="fill:#000000; fill-opacity:0.0; 
stroke:#000000; stroke-width:157.48; stroke-opacity:1; 
stroke-linecap:round; stroke-linejoin:round;">
<path d="M28921 18216
L28440 17834
" />
</g>
<g style="fill:#000000; fill-opacity:0.0; 
stroke:#000000; stroke-width:196.85; stroke-opacity:1; 
stroke-linecap:round; stroke-linejoin:round;">
<path d="M29039 17885
L28598 17877
" />
</g>
<g style="fill:#000000; fill-opacity:0.0; 
stroke:#000000; stroke-width:334.646; stroke-opacity:1; 
stroke-linecap:round; stroke-linejoin:round;">
<path d="M28937 17925
L28846 18200
" />
</g>
<g style="fill:#000000; fill-opacity:0.0; 
stroke:#000000; stroke-width:118.11; stroke-opacity:1; 
stroke-linecap:round; stroke-linejoin:round;">
<path d="M26818 17659
L27755 17651
" />
</g>
<g style="fill:#000000; fill-opacity:0.0; 
stroke:#000000; stroke-width:196.85; stroke-opacity:1; 
stroke-linecap:round; stroke-linejoin:round;">
<path d="M26870 17549
L27311 17557
" />
</g>
<g style="fill:#000000; fill-opacity:0.0; 
stroke:#000000; stroke-width:118.11; stroke-opacity:1; 
stroke-linecap:round; stroke-linejoin:round;">
<path d="M27082 16986
L27850 17679
" />
<path d="M27015 17069
L27637 17616
" />
</g>
<g style="fill:#000000; fill-opacity:0.0; 
stroke:#000000; stroke-width:157.48; stroke-opacity:1; 
stroke-linecap:round; stroke-linejoin:round;">
<path d="M26988 17218
L27468 17600
" />
</g>
<g style="fill:#000000; fill-opacity:0.0; 
stroke:#000000; stroke-width:334.646; stroke-opacity:1; 
stroke-linecap:round; stroke-linejoin:round;">
<path d="M26972 17510
L27062 17234
" />
</g>
<g style="fill:#000000; fill-opacity:0.0; 
stroke:#000000; stroke-width:78.7402; stroke-opacity:1; 
stroke-linecap:round; stroke-linejoin:round;">
<circle cx="27952.8" cy="17716.5" r="606.414" /> 
<circle cx="27952.8" cy="1968.5" r="70.9756" /> 
<circle cx="27952.8" cy="1968.5" r="205.518" /> 
</g>
<g style="fill:#000000; fill-opacity:0.0; 
stroke:#000000; stroke-width:118.11; stroke-opacity:1; 
stroke-linecap:round; stroke-linejoin:round;">
<path d="M28826 2700
L28059 2007
" />
</g>
<g style="fill:#000000; fill-opacity:0.0; 
stroke:#000000; stroke-width:59.0551; stroke-opacity:1; 
stroke-linecap:round; stroke-linejoin:round;">
<path d="M27137 2818
L28767 1122
" />
</g>
<g style="fill:#000000; fill-opacity:0.0; 
stroke:#000000; stroke-width:39.3701; stroke-opacity:1; 
stroke-linecap:round; stroke-linejoin:round;">
<path d="M29133 1968
L26771 1968
" />
<path d="M27952 3149
L27952 787
" />
<circle cx="27952.8" cy="1968.5" r="1181.1" /> 
</g>
<g style="fill:#000000; fill-opacity:0.0; 
stroke:#000000; stroke-width:59.0551; stroke-opacity:1; 
stroke-linecap:round; stroke-linejoin:round;">
<path d="M28787 2775
L27110 1153
" />
</g>
<g style="fill:#000000; fill-opacity:0.0; 
stroke:#000000; stroke-width:118.11; stroke-opacity:1; 
stroke-linecap:round; stroke-linejoin:round;">
<path d="M28893 2618
L28271 2070
" />
<path d="M29090 2027
L28153 2035
" />
</g>
<g style="fill:#000000; fill-opacity:0.0; 
stroke:#000000; stroke-width:157.48; stroke-opacity:1; 
stroke-linecap:round; stroke-linejoin:round;">
<path d="M28921 2468
L28440 2086
" />
</g>
<g style="fill:#000000; fill-opacity:0.0; 
stroke:#000000; stroke-width:196.85; stroke-opacity:1; 
stroke-linecap:round; stroke-linejoin:round;">
<path d="M29039 2137
L28598 2129
" />
</g>
<g style="fill:#000000; fill-opacity:0.0; 
stroke:#000000; stroke-width:334.646; stroke-opacity:1; 
stroke-linecap:round; stroke-linejoin:round;">
<path d="M28937 2177
L28846 2452
" />
</g>
<g style="fill:#000000; fill-opacity:0.0; 
stroke:#000000; stroke-width:118.11; stroke-opacity:1; 
stroke-linecap:round; stroke-linejoin:round;">
<path d="M26818 1911
L27755 1903
" />
</g>
<g style="fill:#000000; fill-opacity:0.0; 
stroke:#000000; stroke-width:196.85; stroke-opacity:1; 
stroke-linecap:round; stroke-linejoin:round;">
<path d="M26870 1801
L27311 1809
" />
</g>
<g style="fill:#000000; fill-opacity:0.0; 
stroke:#000000; stroke-width:118.11; stroke-opacity:1; 
stroke-linecap:round; stroke-linejoin:round;">
<path d="M27082 1238
L27850 1931
" />
<path d="M27015 1321
L27637 1868
" />
</g>
<g style="fill:#000000; fill-opacity:0.0; 
stroke:#000000; stroke-width:157.48; stroke-opacity:1; 
stroke-linecap:round; stroke-linejoin:round;">
<path d="M26988 1470
L27468 1852
" />
</g>
<g style="fill:#000000; fill-opacity:0.0; 
stroke:#000000; stroke-width:334.646; stroke-opacity:1; 
stroke-linecap:round; stroke-linejoin:round;">
<path d="M26972 1762
L27062 1486
" />
</g>
<g style="fill:#000000; fill-opacity:0.0; 
stroke:#000000; stroke-width:78.7402; stroke-opacity:1; 
stroke-linecap:round; stroke-linejoin:round;">
<circle cx="27952.8" cy="1968.5" r="606.414" /> 
<circle cx="1968.5" cy="1968.5" r="70.9756" /> 
<circle cx="1968.5" cy="1968.5" r="205.518" /> 
</g>
<g style="fill:#000000; fill-opacity:0.0; 
stroke:#000000; stroke-width:118.11; stroke-opacity:1; 
stroke-linecap:round; stroke-linejoin:round;">
<path d="M2842 2700
L2074 2007
" />
</g>
<g style="fill:#000000; fill-opacity:0.0; 
stroke:#000000; stroke-width:59.0551; stroke-opacity:1; 
stroke-linecap:round; stroke-linejoin:round;">
<path d="M1153 2818
L2783 1122
" />
</g>
<g style="fill:#000000; fill-opacity:0.0; 
stroke:#000000; stroke-width:39.3701; stroke-opacity:1; 
stroke-linecap:round; stroke-linejoin:round;">
<path d="M3149 1968
L787 1968
" />
<path d="M1968 3149
L1968 787
" />
<circle cx="1968.5" cy="1968.5" r="1181.1" /> 
</g>
<g style="fill:#000000; fill-opacity:0.0; 
stroke:#000000; stroke-width:59.0551; stroke-opacity:1; 
stroke-linecap:round; stroke-linejoin:round;">
<path d="M2803 2775
L1125 1153
" />
</g>
<g style="fill:#000000; fill-opacity:0.0; 
stroke:#000000; stroke-width:118.11; stroke-opacity:1; 
stroke-linecap:round; stroke-linejoin:round;">
<path d="M2909 2618
L2287 2070
" />
<path d="M3106 2027
L2169 2035
" />
</g>
<g style="fill:#000000; fill-opacity:0.0; 
stroke:#000000; stroke-width:157.48; stroke-opacity:1; 
stroke-linecap:round; stroke-linejoin:round;">
<path d="M2937 2468
L2456 2086
" />
</g>
<g style="fill:#000000; fill-opacity:0.0; 
stroke:#000000; stroke-width:196.85; stroke-opacity:1; 
stroke-linecap:round; stroke-linejoin:round;">
<path d="M3055 2137
L2614 2129
" />
</g>
<g style="fill:#000000; fill-opacity:0.0; 
stroke:#000000; stroke-width:334.646; stroke-opacity:1; 
stroke-linecap:round; stroke-linejoin:round;">
<path d="M2952 2177
L2862 2452
" />
</g>
<g style="fill:#000000; fill-opacity:0.0; 
stroke:#000000; stroke-width:118.11; stroke-opacity:1; 
stroke-linecap:round; stroke-linejoin:round;">
<path d="M834 1911
L1771 1903
" />
</g>
<g style="fill:#000000; fill-opacity:0.0; 
stroke:#000000; stroke-width:196.85; stroke-opacity:1; 
stroke-linecap:round; stroke-linejoin:round;">
<path d="M885 1801
L1326 1809
" />
</g>
<g style="fill:#000000; fill-opacity:0.0; 
stroke:#000000; stroke-width:118.11; stroke-opacity:1; 
stroke-linecap:round; stroke-linejoin:round;">
<path d="M1098 1238
L1866 1931
" />
<path d="M1031 1321
L1653 1868
" />
</g>
<g style="fill:#000000; fill-opacity:0.0; 
stroke:#000000; stroke-width:157.48; stroke-opacity:1; 
stroke-linecap:round; stroke-linejoin:round;">
<path d="M1003 1470
L1484 1852
" />
</g>
<g style="fill:#000000; fill-opacity:0.0; 
stroke:#000000; stroke-width:334.646; stroke-opacity:1; 
stroke-linecap:round; stroke-linejoin:round;">
<path d="M988 1762
L1078 1486
" />
</g>
<g style="fill:#000000; fill-opacity:0.0; 
stroke:#000000; stroke-width:78.7402; stroke-opacity:1; 
stroke-linecap:round; stroke-linejoin:round;">
<circle cx="1968.5" cy="1968.5" r="606.414" /> 
</g>
<g style="fill:#000000; fill-opacity:0.0; 
stroke:#000000; stroke-width:196.85; stroke-opacity:1; 
stroke-linecap:round; stroke-linejoin:round;">
<circle cx="23426.6" cy="13973" r="286.619" /> 
</g>
<g style="fill:#000000; fill-opacity:0.0; 
stroke:#000000; stroke-width:157.48; stroke-opacity:1; 
stroke-linecap:round; stroke-linejoin:round;">
<path d="M22515 14543
L24326 14543
" />
</g>
<g style="fill:#000000; fill-opacity:0.0; 
stroke:#000000; stroke-width:59.0551; stroke-opacity:1; 
stroke-linecap:round; stroke-linejoin:round;">
<circle cx="23421.3" cy="14543.3" r="957.915" /> 
</g>
<g style="fill:#000000; fill-opacity:0.0; 
stroke:#000000; stroke-width:196.85; stroke-opacity:1; 
stroke-linecap:round; stroke-linejoin:round;">
<path d="M22555 14425
L24287 14425
" />
<path d="M22581 14261
L24261 14259
" />
<path d="M22659 14117
L23101 14117
" />
<path d="M23739 14099
L24193 14101
" />
<path d="M23827 13935
L24099 13975
" />
<path d="M22741 13985
L23013 13973
" />
<path d="M22855 13873
L23211 13697
" />
<path d="M23991 13899
L23643 13689
" />
<circle cx="13273.1" cy="15650.2" r="286.619" /> 
</g>
<g style="fill:#000000; fill-opacity:0.0; 
stroke:#000000; stroke-width:157.48; stroke-opacity:1; 
stroke-linecap:round; stroke-linejoin:round;">
<path d="M12362 16220
L14173 16220
" />
</g>
<g style="fill:#000000; fill-opacity:0.0; 
stroke:#000000; stroke-width:59.0551; stroke-opacity:1; 
stroke-linecap:round; stroke-linejoin:round;">
<circle cx="13267.7" cy="16220.5" r="957.915" /> 
</g>
<g style="fill:#000000; fill-opacity:0.0; 
stroke:#000000; stroke-width:196.85; stroke-opacity:1; 
stroke-linecap:round; stroke-linejoin:round;">
<path d="M12401 16102
L14133 16102
" />
<path d="M12427 15938
L14107 15936
" />
<path d="M12505 15794
L12947 15794
" />
<path d="M13585 15776
L14039 15778
" />
<path d="M13673 15612
L13945 15652
" />
<path d="M12587 15662
L12859 15650
" />
<path d="M12701 15550
L13057 15374
" />
<path d="M13837 15576
L13489 15366
" />
<circle cx="8076.25" cy="9902.14" r="286.619" /> 
</g>
<g style="fill:#000000; fill-opacity:0.0; 
stroke:#000000; stroke-width:157.48; stroke-opacity:1; 
stroke-linecap:round; stroke-linejoin:round;">
<path d="M7165 10472
L8976 10472
" />
</g>
<g style="fill:#000000; fill-opacity:0.0; 
stroke:#000000; stroke-width:59.0551; stroke-opacity:1; 
stroke-linecap:round; stroke-linejoin:round;">
<circle cx="8070.87" cy="10472.4" r="957.915" /> 
</g>
<g style="fill:#000000; fill-opacity:0.0; 
stroke:#000000; stroke-width:196.85; stroke-opacity:1; 
stroke-linecap:round; stroke-linejoin:round;">
<path d="M7204 10354
L8937 10354
" />
<path d="M7230 10190
L8910 10188
" />
<path d="M7308 10046
L7750 10046
" />
<path d="M8388 10028
L8842 10030
" />
<path d="M8476 9864
L8748 9904
" />
<path d="M7390 9914
L7662 9902
" />
<path d="M7504 9802
L7860 9626
" />
<path d="M8640 9828
L8292 9618
" />
<circle cx="7092" cy="1004.5" r="286.619" /> 
</g>
<g style="fill:#000000; fill-opacity:0.0; 
stroke:#000000; stroke-width:157.48; stroke-opacity:1; 
stroke-linecap:round; stroke-linejoin:round;">
<path d="M6181 1574
L7992 1574
" />
</g>
<g style="fill:#000000; fill-opacity:0.0; 
stroke:#000000; stroke-width:59.0551; stroke-opacity:1; 
stroke-linecap:round; stroke-linejoin:round;">
<circle cx="7086.61" cy="1574.8" r="957.915" /> 
</g>
<g style="fill:#000000; fill-opacity:0.0; 
stroke:#000000; stroke-width:196.85; stroke-opacity:1; 
stroke-linecap:round; stroke-linejoin:round;">
<path d="M6220 1456
L7952 1456
" />
<path d="M6246 1292
L7926 1290
" />
<path d="M6324 1148
L6766 1148
" />
<path d="M7404 1130
L7858 1132
" />
<path d="M7492 966
L7764 1006
" />
<path d="M6406 1016
L6678 1004
" />
<path d="M6520 904
L6876 728
" />
<path d="M7656 930
L7308 720
" />
</g>
<g style="fill:#000000; fill-opacity:0.0; 
stroke:#000000; stroke-width:59.0551; stroke-opacity:1; 
stroke-linecap:round; stroke-linejoin:round;">
<path d="M21834 16124
L15859 16124
" />
<path d="M20009 17549
L20009 16274
" />
<path d="M19834 15517
L21809 15517
" />
<path d="M15834 14317
L21834 14317
" />
<path d="M20194.8 14778.2 A233.692 233.692 0.0 0 0 20250.6 15142.7 " />
<path d="M21415.1 14776.8 A809.778 809.778 0.0 0 0 20174.6 14797.7 " />
<path d="M20234.4 15127.9 A960.8 960.8 0.0 0 0 21410.6 15146.7 " />
<path d="M21392.9 15159.3 A268.33 268.33 0.0 0 0 21413.6 14778.7 " />
<path d="M20164 16274
L21464 16274
" />
<path d="M20014 16274
L20164 16274
" />
<path d="M21614 16274
L21464 16274
" />
<path d="M20224 15067
L21424 14817
" />
<path d="M20174 15017
L21374 14767
" />
<path d="M21614 15417
L20014 15417
" />
<path d="M21614 14417
L21614 15417
" />
<path d="M20014 14417
L21614 14417
" />
<path d="M20014 15417
L20014 14417
" />
<path d="M21464 16574
L21314 16574
" />
<path d="M20164 16574
L20314 16574
" />
<path d="M20157 17559
L20164 16574
" />
<path d="M21456 17559
L21464 16574
" />
<path d="M21614 16274
L21594 17559
" />
<path d="M15797 17568
L21820 17578
" />
<path d="M21834 14317
L21830 17559
" />
<path d="M20305 17549
L20314 16274
" />
<path d="M20314 16274
L21314 16274
" />
<path d="M21328 17559
L21314 16274
" />
<path d="M17342 17529
L17344 16274
" />
<path d="M16344 16274
L17344 16274
" />
<path d="M16348 17529
L16344 16274
" />
<path d="M19311 17549
L19314 16274
" />
<path d="M18314 16274
L19314 16274
" />
<path d="M18326 17539
L18314 16274
" />
<path d="M20009 17186
L20000 17559
" />
<path d="M19614 16274
L19596 17549
" />
<path d="M16044 16274
L16053 17549
" />
<path d="M18021 17549
L18014 16274
" />
<path d="M17627 17539
L17644 16274
" />
<path d="M19448 17549
L19464 16574
" />
<path d="M18159 17539
L18164 16574
" />
<path d="M17480 17549
L17494 16574
" />
<path d="M16190 17529
L16194 16574
" />
<path d="M16194 16574
L16344 16574
" />
<path d="M17494 16574
L17344 16574
" />
<path d="M18164 16574
L18314 16574
" />
<path d="M19464 16574
L19314 16574
" />
<path d="M15834 15517
L19834 15517
" />
<path d="M18014 15417
L18014 14417
" />
<path d="M18014 14417
L19614 14417
" />
<path d="M19614 14417
L19614 15417
" />
<path d="M19614 15417
L18014 15417
" />
<path d="M17644 15417
L17644 14417
" />
<path d="M17644 15417
L16044 15417
" />
<path d="M16044 15417
L16044 14417
" />
<path d="M17644 14417
L16044 14417
" />
<path d="M18174 15017
L19374 14767
" />
<path d="M18224 15067
L19424 14817
" />
<path d="M16204 15017
L17405 14767
" />
<path d="M16254 15067
L17454 14817
" />
<path d="M16044 16274
L16194 16274
" />
<path d="M17644 16274
L17494 16274
" />
<path d="M17494 16274
L16194 16274
" />
<path d="M19614 16274
L19464 16274
" />
<path d="M18014 16274
L18164 16274
" />
<path d="M18164 16274
L19464 16274
" />
<path d="M19392.9 15159.3 A268.33 268.33 0.0 0 0 19413.6 14778.7 " />
<path d="M18234.4 15127.9 A960.8 960.8 0.0 0 0 19410.6 15146.7 " />
<path d="M19415.1 14776.8 A809.778 809.778 0.0 0 0 18174.6 14797.7 " />
<path d="M18194.8 14778.2 A233.692 233.692 0.0 0 0 18250.6 15142.7 " />
<path d="M17422.9 15160.3 A269.072 269.072 0.0 0 0 17444.6 14778.7 " />
<path d="M16265.4 15127.9 A960.8 960.8 0.0 0 0 17441.6 15146.7 " />
<path d="M17447.5 14774.9 A811.333 811.333 0.0 0 0 16204.6 14797.7 " />
<path d="M16224.6 14779.1 A233.206 233.206 0.0 0 0 16281.6 15142.7 " />
<path d="M15807 14340
L15803 17581
" />
<path d="M27007 10206
L27007 14340
" />
<path d="M25039 14340
L25039 10206
" />
<path d="M28385 14301
L28405 10206
" />
<path d="M25039 10206
L28385 10206
" />
<path d="M28356 12667
L27100 12665
" />
<path d="M27100 13665
L27100 12665
" />
<path d="M28356 13661
L27100 13665
" />
<path d="M28375 10698
L27100 10695
" />
<path d="M27100 11695
L27100 10695
" />
<path d="M28366 11683
L27100 11695
" />
<path d="M27100 10395
L28375 10413
" />
<path d="M27100 13965
L28375 13956
" />
<path d="M28375 11988
L27100 11995
" />
<path d="M28366 12381
L27100 12365
" />
<path d="M28375 10561
L27400 10545
" />
<path d="M28366 11850
L27400 11845
" />
<path d="M28375 12529
L27400 12515
" />
<path d="M28356 13818
L27400 13815
" />
<path d="M27400 13815
L27400 13665
" />
<path d="M27400 12515
L27400 12665
" />
<path d="M27400 11845
L27400 11695
" />
<path d="M27400 10545
L27400 10695
" />
<path d="M26417 14340
L26417 10206
" />
<path d="M26244 11995
L25244 11995
" />
<path d="M25244 11995
L25244 10395
" />
<path d="M25244 10395
L26244 10395
" />
<path d="M26244 10395
L26244 11995
" />
<path d="M26244 12365
L25244 12365
" />
<path d="M26244 12365
L26244 13965
" />
<path d="M26244 13965
L25244 13965
" />
<path d="M25244 12365
L25244 13965
" />
<path d="M25844 11835
L25594 10635
" />
<path d="M25894 11785
L25644 10585
" />
<path d="M25844 13805
L25594 12604
" />
<path d="M25894 13755
L25644 12555
" />
<path d="M27100 13965
L27100 13815
" />
<path d="M27100 12365
L27100 12515
" />
<path d="M27100 12515
L27100 13815
" />
<path d="M27100 10395
L27100 10545
" />
<path d="M27100 11995
L27100 11845
" />
<path d="M27100 11845
L27100 10545
" />
<path d="M25986.1 10616.9 A268.33 268.33 0.0 0 0 25605.5 10596.2 " />
<path d="M25954.7 11775.5 A960.8 960.8 0.0 0 0 25973.5 10599.2 " />
<path d="M25603.6 10594.7 A809.778 809.778 0.0 0 0 25624.5 11835.2 " />
<path d="M25604.9 11815 A233.692 233.692 0.0 0 0 25969.5 11759.2 " />
<path d="M25987.1 12586.9 A269.072 269.072 0.0 0 0 25605.5 12565.2 " />
<path d="M25954.7 13744.5 A960.8 960.8 0.0 0 0 25973.5 12568.2 " />
<path d="M25601.6 12562.4 A811.333 811.333 0.0 0 0 25624.5 13805.2 " />
<path d="M25605.9 13785.2 A233.206 233.206 0.0 0 0 25969.5 13728.2 " />
<path d="M25039 14340
L28385 14340
" />
<path d="M482 12755
L582 12755
" />
<path d="M482 14955
L1882 14955
" />
<path d="M482 12755
L482 14955
" />
<path d="M1582 10755
L1882 10755
" />
<path d="M1782 12755
L1882 12755
" />
<path d="M1782 14755
L1782 12755
" />
<path d="M1582 14755
L1782 14755
" />
<path d="M1582 14255
L1582 14755
" />
<path d="M1082 13755
L1582 14255
" />
<path d="M1582 13255
L1082 13755
" />
<path d="M1082 12755
L1582 13255
" />
<path d="M1582 12255
L1082 12755
" />
<path d="M1082 11755
L1582 12255
" />
<path d="M1582 11255
L1082 11755
" />
<path d="M1582 10755
L1582 11255
" />
<path d="M658 13039
L908 12739
" />
<path d="M658 12439
L658 13039
" />
<path d="M908 12739
L658 12439
" />
<path d="M5157 10393
L5157 15118
" />
<path d="M2007 10393
L2007 15118
" />
<path d="M5157 15118
L2007 15118
" />
<path d="M3347 12495
L3347 12645
" />
<path d="M3647 12345
L3647 12495
" />
<path d="M5157 10393
L2007 10393
" />
<path d="M25472 8740
L25669 8661
" />
</g>
<g style="fill:#000000; fill-opacity:1.0; 
stroke:#000000; stroke-width:0; stroke-opacity:1; 
stroke-linecap:round; stroke-linejoin:round;">
<polyline style="fill-rule:evenodd;"
points="23578,5878
23625,5863
23603,5851
23581,5838
23241,5600
23229,5587
23229,5569
23236,5505
23836,5569
23828,5645
23396,5599
23377,5596
23356,5593
23702,5834
23716,5848
23719,5867
23718,5879
23695,5908
23302,6074
23325,6075
23345,6076
23776,6122
23768,6198
23169,6133
23176,6070
23180,6052
23193,6041
23578,5878
23578,5878
" /> 
<polyline style="fill-rule:evenodd;"
points="24084,4969
23809,5041
23555,5032
23527,5031
23493,5026
23520,5048
23540,5067
23723,5243
23723,5243
23809,5041
24084,4969
24058,5031
24045,5045
24027,5050
23876,5044
23770,5290
23879,5395
23888,5411
23887,5430
23860,5492
23400,5034
23435,4953
24084,4969
24084,4969
" /> 
<polyline style="fill-rule:evenodd;"
points="24217,4305
24162,4374
24077,4326
23994,4314
23917,4338
23851,4396
23765,4505
24128,4792
24214,4683
24255,4605
24261,4525
24230,4446
24162,4374
24217,4305
24301,4398
24338,4505
24328,4617
24269,4726
24129,4904
23656,4530
23796,4353
23888,4271
23995,4235
24107,4246
24217,4305
" /> 
<polyline style="fill-rule:evenodd;"
points="24471,3715
24515,3771
24288,3946
24407,4099
24590,3958
24631,4012
24449,4153
24571,4311
24798,4135
24841,4191
24546,4420
24176,3943
24471,3715
" /> 
<polyline style="fill-rule:evenodd;"
points="25211,4009
25131,4043
24891,3490
24971,3455
25211,4009
" /> 
<polyline style="fill-rule:evenodd;"
points="25264,3345
25281,3344
25296,3353
25727,3714
25720,3692
25715,3672
25627,3266
25701,3249
25830,3838
25787,3848
25769,3848
25754,3839
25323,3478
25329,3499
25334,3518
25423,3927
25349,3943
25220,3354
25264,3345
25264,3345
" /> 
<polyline style="fill-rule:evenodd;"
points="26633,3764
26644,3771
26673,3813
26575,3867
26445,3873
26331,3834
26249,3759
26206,3654
26203,3528
26241,3407
26315,3320
26416,3270
26538,3264
26648,3300
26726,3368
26692,3404
26684,3410
26673,3411
26656,3400
26630,3379
26590,3355
26527,3338
26442,3342
26371,3379
26319,3445
26291,3540
26292,3641
26325,3719
26383,3773
26461,3800
26508,3804
26548,3799
26583,3788
26617,3768
26625,3765
26633,3764
26633,3764
" /> 
<polyline style="fill-rule:evenodd;"
points="27210,4114
27133,3841
27138,3586
27139,3559
27142,3525
27122,3552
27103,3573
26929,3758
26929,3758
27133,3841
27210,4114
27147,4089
27132,4077
27128,4059
27131,3907
26883,3806
26780,3917
26765,3926
26745,3925
26683,3900
27133,3432
27214,3465
27210,4114
27210,4114
" /> 
<polyline style="fill-rule:evenodd;"
points="27678,3707
27689,3719
27692,3736
27695,4298
27707,4279
27720,4262
27972,3932
28033,3978
27667,4457
27632,4431
27620,4417
27617,4400
27614,3837
27602,3855
27591,3872
27336,4205
27276,4158
27642,3679
27678,3707
" /> 
<polyline style="fill-rule:evenodd;"
points="28074,4962
28145,4686
28278,4469
28293,4446
28313,4419
28281,4431
28255,4440
28011,4512
28145,4686
28074,4962
28033,4908
28026,4890
28031,4872
28110,4743
27947,4531
27802,4574
27784,4574
27768,4564
27727,4510
28352,4334
28405,4403
28074,4962
28074,4962
" /> 
<polyline style="fill-rule:evenodd;"
points="28588,5402
28554,5320
28638,5269
28689,5202
28705,5123
28686,5037
28633,4909
28206,5086
28259,5215
28307,5289
28374,5333
28458,5344
28554,5320
28588,5402
28465,5429
28354,5409
28261,5346
28195,5242
28108,5033
28665,4801
28751,5010
28778,5131
28757,5242
28693,5334
28588,5402
" /> 
<polyline style="fill-rule:evenodd;"
points="28392,6107
28590,5903
28813,5780
28837,5767
28869,5753
28835,5748
28807,5743
28560,5685
28590,5903
28392,6107
28383,6040
28386,6021
28399,6009
28532,5935
28495,5670
28347,5636
28332,5628
28323,5610
28314,5544
28944,5698
28956,5785
28392,6107
" /> 
<polyline style="fill-rule:evenodd;"
points="26062,4125
25697,4807
25506,4833
25241,4696
25439,5744
25281,5853
24819,5335
24744,5598
24640,5660
24056,5537
24209,6096
24176,6304
23968,6402
24974,7220
25020,7356
24932,7646
25935,7508
26017,7591
25971,8650
26139,8650
26113,7593
26190,7508
27193,7646
27105,7356
27151,7220
28157,6402
27949,6304
27916,6096
28069,5537
27485,5660
27381,5598
27306,5335
26844,5853
26686,5744
26884,4696
26619,4833
26428,4807
26062,4125
" /> 
<polyline style="fill-rule:evenodd;"
points="23777,6975
23707,6980
23686,6695
23483,6710
23500,6952
23430,6957
23412,6715
23157,6733
23151,6646
23750,6604
23777,6975
" /> 
<polyline style="fill-rule:evenodd;"
points="23305,7550
23481,7328
23689,7183
23712,7168
23741,7151
23708,7150
23680,7147
23429,7115
23429,7115
23481,7328
23305,7550
23289,7485
23290,7466
23302,7452
23426,7366
23363,7107
23213,7088
23197,7081
23186,7064
23170,6999
23811,7089
23832,7174
23305,7550
23305,7550
" /> 
<polyline style="fill-rule:evenodd;"
points="23338,7621
23621,7586
23436,7670
23489,7786
23521,7836
23557,7863
23597,7870
23639,7859
23691,7800
23674,7701
23621,7586
23338,7621
23677,7560
23720,7655
23751,7705
23786,7734
23825,7743
23866,7733
23921,7673
23904,7575
23859,7477
23677,7560
23338,7621
23884,7370
23965,7547
23995,7639
23994,7712
23965,7768
23911,7806
23869,7818
23827,7815
23784,7796
23743,7761
23740,7870
23672,7938
23603,7954
23536,7939
23476,7893
23427,7816
23338,7621
23338,7621
" /> 
<polyline style="fill-rule:evenodd;"
points="23830,8037
23882,8000
23929,8068
23971,8114
24016,8136
24061,8136
24105,8117
24150,8043
24113,7943
24063,7873
23882,8000
23882,8000
23830,8037
23627,8179
23577,8109
24069,7763
24168,7904
24216,7993
24228,8069
24208,8132
24159,8182
24104,8208
24047,8214
23990,8198
23935,8162
23929,8200
23835,8476
23791,8413
23786,8374
23872,8130
23875,8109
23864,8085
23830,8037
" /> 
<polyline style="fill-rule:evenodd;"
points="23954,8592
23895,8528
24338,8122
24397,8186
23954,8592
" /> 
<polyline style="fill-rule:evenodd;"
points="24677,8821
24608,8766
24657,8681
24669,8598
24647,8520
24589,8454
24512,8413
24431,8407
24353,8438
24280,8505
24231,8590
24219,8673
24242,8750
24300,8817
24377,8858
24457,8864
24536,8833
24608,8766
24677,8821
24620,8878
24556,8918
24489,8940
24419,8944
24435,9170
24379,9125
24360,9104
24352,9078
24341,8927
24297,8905
24253,8876
24172,8782
24138,8674
24151,8560
24212,8450
24306,8367
24414,8329
24527,8338
24636,8396
24717,8489
24750,8597
24737,8711
24677,8821
" /> 
<polyline style="fill-rule:evenodd;"
points="24831,9152
24895,9169
24954,9159
25004,9125
25044,9068
25202,8741
25280,8778
25121,9106
25064,9186
24987,9235
24897,9248
24798,9220
24715,9160
24669,9081
24660,8990
24687,8895
24846,8568
24924,8606
24765,8933
24745,8999
24749,9060
24778,9112
24831,9152
" /> 
<polyline style="fill-rule:evenodd;"
points="25155,9362
25375,8872
25325,9059
25547,9118
25530,9183
25308,9124
25257,9317
25533,9390
25514,9458
25155,9362
25309,8781
25669,8877
25650,8945
25375,8872
25155,9362
" /> 
<polyline style="fill-rule:evenodd;"
points="26302,9506
26235,9505
26131,9279
26044,9041
26035,9015
26026,8982
26016,9015
26007,9041
25912,9276
26131,9279
26235,9505
26216,9499
26206,9484
26154,9342
25887,9337
25831,9478
25820,9492
25802,9498
25735,9497
25984,8899
26071,8901
26302,9506
26302,9506
" /> 
<polyline style="fill-rule:evenodd;"
points="26582,9383
26644,9359
26685,9316
26706,9258
26703,9189
26635,8832
26720,8816
26788,9173
26789,9272
26757,9357
26692,9421
26597,9458
26494,9459
26410,9423
26349,9355
26314,9263
26246,8905
26331,8889
26399,9247
26422,9312
26461,9358
26516,9383
26582,9383
26582,9383
" /> 
<polyline style="fill-rule:evenodd;"
points="27487,8984
27500,8983
27548,9002
27498,9102
27395,9180
27279,9213
27170,9198
27074,9137
27000,9035
26964,8914
26974,8800
27029,8702
27125,8628
27236,8596
27339,8607
27331,8655
27328,8665
27320,8672
27299,8673
27266,8670
27220,8674
27159,8695
27091,8747
27054,8817
27049,8901
27079,8995
27138,9076
27209,9122
27287,9134
27366,9112
27407,9088
27437,9062
27460,9032
27477,8997
27480,8990
27487,8984
27487,8984
" /> 
<polyline style="fill-rule:evenodd;"
points="28052,8720
27777,8650
27560,8519
27536,8504
27509,8484
27522,8516
27530,8542
27604,8784
27777,8650
28052,8720
27999,8761
27981,8768
27963,8763
27834,8684
27623,8848
27667,8993
27667,9010
27657,9027
27604,9068
27424,8446
27493,8392
28052,8720
28052,8720
" /> 
<polyline style="fill-rule:evenodd;"
points="27675,8240
27688,8229
27706,8227
28266,8253
28247,8239
28231,8226
27915,7958
27964,7900
28422,8289
28394,8322
28380,8333
28362,8335
27802,8310
27820,8323
27835,8335
28154,8605
28105,8663
27646,8274
27675,8240
27675,8240
" /> 
<polyline style="fill-rule:evenodd;"
points="28741,7728
28461,7774
28210,7741
28182,7737
28149,7730
28173,7753
28192,7774
28356,7967
28461,7774
28741,7728
28709,7787
28695,7800
28677,7802
28527,7783
28399,8017
28498,8132
28505,8148
28502,8167
28470,8226
28056,7729
28098,7652
28741,7728
" /> 
<polyline style="fill-rule:evenodd;"
points="28630,7066
28604,7151
28507,7137
28426,7156
28363,7206
28323,7284
28283,7417
28724,7551
28764,7418
28775,7331
28750,7255
28693,7193
28604,7151
28630,7066
28741,7123
28815,7208
28846,7316
28831,7438
28766,7654
28191,7480
28256,7264
28312,7154
28398,7082
28506,7052
28630,7066
" /> 
<polyline style="fill-rule:evenodd;"
points="28974,6564
28735,6717
28491,6785
28465,6793
28431,6799
28463,6811
28488,6823
28715,6935
28735,6717
28974,6564
28968,6631
28961,6648
28945,6658
28799,6699
28775,6964
28910,7031
28923,7043
28928,7062
28922,7129
28345,6835
28353,6747
28974,6564
" /> 
</g>
<g style="fill:#000000; fill-opacity:1.0; 
stroke:#000000; stroke-width:3.93701; stroke-opacity:1; 
stroke-linecap:round; stroke-linejoin:round;">
<polyline style="fill-rule:evenodd;"
points="14293,11561
14338,11796
14501,11864
14665,11931
14861,11798
14916,11760
14966,11727
15008,11700
15040,11679
15060,11667
15065,11664
15075,11671
15096,11690
15126,11718
15162,11753
15202,11793
15244,11835
15285,11878
15324,11918
15357,11953
15382,11981
15398,11999
15401,12006
15396,12017
15381,12042
15358,12078
15328,12123
15294,12175
15274,12204
15238,12257
15205,12305
15178,12346
15159,12376
15148,12395
15147,12398
15150,12409
15160,12434
15175,12471
15193,12514
15213,12561
15233,12609
15252,12653
15269,12690
15281,12717
15287,12729
15287,12730
15297,12732
15324,12738
15364,12746
15416,12756
15475,12767
15510,12773
15574,12785
15631,12797
15680,12807
15716,12816
15738,12822
15742,12824
15746,12837
15750,12866
15752,12907
15754,12959
15755,13016
15755,13076
15755,13135
15753,13190
15751,13237
15748,13273
15744,13295
15742,13300
15728,13305
15699,13313
15658,13322
15609,13332
15592,13335
15511,13350
15446,13362
15396,13372
15360,13379
15334,13386
15317,13391
15306,13395
15300,13400
15299,13401
15290,13416
15276,13445
15260,13484
15241,13530
15221,13579
15203,13629
15186,13675
15173,13713
15165,13741
15162,13755
15163,13755
15170,13767
15187,13792
15211,13827
15241,13872
15276,13922
15285,13936
15320,13987
15351,14034
15376,14074
15393,14104
15401,14121
15401,14123
15395,14135
15376,14157
15348,14187
15312,14224
15272,14265
15229,14307
15187,14348
15147,14386
15112,14418
15084,14442
15066,14456
15061,14458
15049,14453
15026,14439
14994,14418
14969,14401
14925,14371
14872,14335
14819,14298
14790,14279
14694,14214
14613,14258
14576,14277
14545,14292
14524,14300
14518,14301
14512,14293
14499,14268
14481,14230
14458,14180
14432,14121
14404,14056
14374,13985
14343,13913
14313,13840
14284,13770
14257,13704
14234,13645
14215,13596
14201,13557
14193,13532
14192,13524
14202,13513
14224,13495
14253,13475
14256,13473
14332,13412
14393,13341
14439,13262
14469,13178
14483,13090
14480,13001
14460,12913
14422,12829
14411,12810
14352,12736
14283,12676
14206,12631
14123,12602
14036,12588
13948,12590
13862,12608
13780,12643
13703,12694
13680,12715
13619,12781
13576,12850
13545,12927
13529,13004
13525,13090
13538,13176
13569,13260
13614,13339
13673,13409
13745,13468
13754,13474
13784,13495
13806,13512
13817,13524
13817,13524
13815,13536
13806,13564
13791,13605
13771,13656
13747,13717
13719,13784
13690,13854
13660,13927
13629,13999
13599,14069
13571,14133
13546,14191
13524,14238
13507,14274
13495,14296
13491,14301
13476,14297
13449,14285
13415,14268
13396,14258
13315,14214
13218,14279
13169,14313
13115,14349
13065,14384
13040,14401
13004,14425
12974,14444
12953,14456
12946,14458
12937,14452
12915,14433
12883,14405
12844,14368
12800,14326
12771,14299
12722,14250
12679,14207
12645,14170
12620,14143
12608,14126
12607,14122
12613,14109
12628,14083
12651,14046
12680,14000
12714,13950
12723,13936
12758,13885
12790,13839
12816,13800
12835,13772
12845,13757
12846,13755
12845,13743
12837,13717
12824,13679
12808,13634
12789,13585
12770,13535
12751,13488
12734,13448
12720,13418
12711,13402
12710,13401
12704,13396
12695,13392
12679,13387
12655,13381
12620,13373
12573,13364
12512,13353
12433,13338
12416,13335
12366,13325
12322,13316
12289,13308
12270,13301
12267,13300
12263,13287
12259,13257
12257,13215
12255,13164
12254,13107
12253,13047
12254,12988
12255,12933
12258,12886
12261,12850
12264,12828
12267,12824
12279,12819
12309,12812
12351,12802
12405,12791
12466,12780
12499,12773
12562,12762
12618,12751
12665,12742
12699,12735
12718,12731
12721,12730
12727,12720
12738,12695
12754,12659
12772,12616
12793,12568
12813,12521
12831,12477
12847,12439
12857,12412
12862,12398
12862,12398
12857,12387
12842,12363
12819,12328
12789,12283
12755,12233
12735,12203
12698,12150
12666,12101
12639,12060
12620,12029
12609,12010
12607,12006
12614,11996
12632,11974
12660,11944
12695,11908
12734,11867
12776,11824
12818,11782
12857,11743
12892,11710
12919,11684
12938,11668
12944,11664
12954,11670
12978,11684
13013,11707
13057,11737
13109,11771
13148,11798
13344,11931
13508,11864
13671,11796
13715,11561
13760,11326
14249,11326
14293,11561
" /> 
<polyline style="fill-rule:evenodd;"
points="13088,4832
13192,4832
13240,4832
14016,4832
14016,4877
14021,4933
14036,4984
14061,5032
14096,5075
14107,5087
14150,5121
14196,5145
14246,5160
14297,5167
14349,5164
14399,5152
14447,5131
14491,5102
14510,5084
14547,5040
14574,4992
14590,4940
14597,4884
14597,4879
14597,4832
14618,4832
14637,4834
14654,4840
14655,4841
14658,4843
14662,4844
14665,4846
14668,4848
14671,4851
14673,4855
14675,4861
14677,4870
14679,4881
14680,4895
14681,4912
14683,4934
14683,4961
14684,4992
14685,5028
14685,5071
14686,5120
14686,5175
14686,5238
14686,5308
14686,5386
14686,5473
14686,5569
14686,5674
14686,5789
14685,5915
14685,5930
14685,6056
14685,6172
14685,6278
14685,6374
14685,6462
14684,6541
14684,6611
14684,6674
14684,6730
14683,6779
14683,6822
14682,6859
14681,6890
14680,6917
14679,6938
14678,6956
14676,6970
14674,6981
14673,6989
14670,6995
14668,6999
14665,7002
14662,7003
14659,7004
14656,7006
14652,7007
14651,7007
14648,7008
14643,7009
14635,7010
14625,7011
14612,7011
14594,7012
14573,7013
14547,7013
14516,7013
14479,7014
14436,7014
14388,7014
14332,7015
14269,7015
14199,7015
14120,7015
14033,7015
13937,7015
13832,7015
13717,7015
13591,7015
13551,7015
13422,7015
13305,7015
13197,7015
13098,7015
13009,7015
12928,7015
12856,7015
12791,7015
12733,7014
12683,7014
12639,7014
12600,7013
12568,7013
12540,7013
12517,7012
12498,7012
12483,7011
12472,7010
12463,7009
12457,7009
12453,7008
12451,7007
12446,7005
12443,7004
12439,7003
12436,7001
12433,6998
12431,6994
12429,6989
12427,6981
12425,6970
12423,6956
12422,6939
12421,6918
12420,6892
12419,6861
12418,6825
12418,6783
12417,6767
12562,6767
13072,6767
13062,6752
13052,6737
13044,6722
13037,6707
13031,6691
13027,6673
13023,6651
13021,6625
13019,6593
13018,6555
13017,6510
13017,6456
13018,6393
13018,6369
13019,6118
13179,6335
13224,6396
13263,6450
13296,6496
13325,6536
13348,6570
13367,6599
13383,6624
13395,6644
13403,6662
13409,6678
13413,6692
13415,6705
13416,6718
13415,6731
13415,6733
13414,6767
13972,6767
13931,6725
13920,6713
13909,6702
13898,6691
13887,6678
13876,6665
13863,6648
13848,6630
13831,6607
13811,6581
13788,6550
13761,6514
13730,6472
13695,6424
13655,6369
13609,6306
13571,6254
13524,6189
13483,6132
13447,6083
13417,6040
13392,6005
13371,5975
13354,5951
13341,5932
13332,5917
13325,5906
13322,5899
13320,5894
13321,5891
13326,5885
13337,5870
13354,5849
13376,5822
13401,5790
13430,5754
13462,5715
13495,5673
13530,5630
13566,5586
13585,5561
14071,5561
14091,5598
14111,5634
14111,6694
14091,6730
14071,6767
14309,6767
14366,6767
14413,6767
14451,6767
14481,6766
14504,6766
14520,6765
14531,6764
14538,6763
14541,6761
14541,6760
14539,6757
14539,6757
14532,6747
14523,6731
14515,6715
14500,6683
14497,5561
14071,5561
13585,5561
13601,5542
13636,5499
13669,5457
13700,5419
13729,5384
13754,5353
13774,5327
13790,5308
13800,5297
13836,5254
13870,5216
13902,5183
13931,5157
13951,5141
13975,5124
13428,5124
13428,5156
13426,5179
13421,5201
13412,5222
13406,5234
13400,5245
13392,5257
13384,5271
13373,5287
13359,5306
13342,5329
13321,5356
13296,5388
13266,5427
13230,5472
13189,5525
13184,5531
13019,5739
13017,5509
13017,5439
13017,5381
13018,5333
13019,5295
13020,5267
13021,5249
13022,5245
13031,5209
13042,5177
13055,5151
13063,5140
13077,5124
12819,5124
12758,5124
12706,5124
12664,5124
12631,5125
12605,5125
12587,5126
12574,5127
12568,5128
12566,5130
12566,5130
12571,5139
12580,5152
12585,5158
12590,5165
12594,5171
12598,5177
12602,5183
12605,5190
12607,5199
12610,5210
12612,5224
12613,5241
12615,5262
12616,5288
12617,5319
12618,5356
12618,5398
12619,5448
12619,5505
12620,5570
12620,5644
12620,5727
12620,5819
12621,5904
12621,5999
12621,6089
12621,6175
12621,6255
12621,6329
12620,6396
12620,6456
12620,6508
12619,6552
12619,6587
12618,6612
12617,6627
12617,6629
12612,6666
12605,6695
12593,6721
12577,6746
12575,6749
12562,6767
12417,6767
12417,6735
12417,6680
12417,6618
12416,6548
12416,6471
12416,6384
12416,6289
12416,6185
12416,6070
12416,5946
12416,5921
12416,5795
12416,5680
12416,5574
12416,5478
12417,5391
12417,5312
12417,5242
12417,5179
12417,5124
12418,5075
12418,5033
12418,4997
12419,4966
12419,4940
12420,4919
12420,4902
12421,4889
12422,4879
12423,4872
12424,4867
12425,4864
12425,4864
12427,4860
12428,4856
12430,4852
12433,4849
12437,4846
12442,4843
12450,4841
12460,4839
12474,4838
12492,4836
12514,4835
12541,4834
12573,4833
12611,4833
12656,4832
12708,4832
12767,4832
12834,4832
12909,4832
12994,4832
13088,4832
" /> 
<polyline style="fill-rule:evenodd;"
points="15606,5102
15664,5108
15721,5120
15777,5137
15837,5160
15902,5190
15914,5196
15940,5209
15966,5221
15987,5231
16002,5237
16004,5237
16026,5244
15929,5385
15905,5420
15883,5451
15864,5479
15849,5501
15838,5517
15831,5526
15830,5527
15826,5524
15816,5516
15802,5502
15794,5495
15750,5460
15700,5433
15657,5418
15631,5413
15599,5411
15564,5410
15530,5411
15501,5414
15489,5416
15437,5434
15390,5461
15348,5498
15311,5544
15280,5600
15254,5665
15233,5739
15221,5802
15218,5830
15216,5866
15214,5908
15214,5952
15215,5997
15217,6040
15219,6078
15223,6109
15224,6114
15240,6190
15263,6257
15292,6316
15327,6366
15353,6394
15398,6431
15447,6459
15500,6476
15556,6484
15613,6482
15672,6470
15707,6458
15754,6433
15804,6398
15832,6375
15847,6361
15859,6351
15866,6346
15867,6346
15870,6351
15878,6364
15890,6384
15906,6410
15925,6441
15946,6475
15958,6494
16047,6640
15936,6695
15895,6715
15863,6730
15836,6742
15813,6752
15791,6760
15769,6766
15745,6773
15722,6778
15701,6782
15680,6786
15655,6788
15625,6790
15587,6791
15562,6791
15526,6792
15492,6791
15461,6791
15436,6790
15420,6788
15419,6788
15334,6770
15255,6742
15180,6705
15111,6658
15047,6602
14988,6536
14945,6478
14900,6401
14863,6321
14835,6235
14816,6144
14804,6047
14800,5948
14803,5852
14813,5764
14829,5682
14852,5604
14883,5529
14887,5521
14927,5448
14976,5379
15034,5315
15098,5257
15166,5207
15230,5171
15295,5142
15360,5121
15427,5108
15500,5101
15543,5100
15606,5102
" /> 
<polyline style="fill-rule:evenodd;"
points="16680,5537
16706,5539
16783,5549
16851,5565
16910,5588
16962,5617
17005,5652
17041,5695
17070,5745
17091,5799
17097,5816
17101,5833
17106,5849
17109,5865
17112,5883
17114,5904
17116,5927
17118,5955
17119,5988
17121,6027
17121,6072
17122,6125
17123,6186
17124,6257
17124,6313
17127,6694
17147,6731
17157,6748
17164,6762
17168,6769
17168,6770
17162,6770
17148,6771
17124,6771
17094,6772
17057,6772
17016,6772
16970,6772
16965,6772
16762,6772
16762,6726
16762,6706
16761,6690
16760,6681
16759,6680
16754,6684
16743,6692
16728,6704
16728,6705
16702,6724
16669,6744
16633,6762
16597,6776
16581,6780
16550,6786
16512,6790
16470,6792
16428,6791
16389,6788
16362,6784
16296,6764
16237,6737
16184,6701
16139,6658
16101,6607
16072,6550
16060,6515
16052,6482
16046,6441
16044,6398
16044,6391
16410,6391
16413,6424
16423,6451
16441,6475
16449,6483
16474,6503
16503,6515
16539,6521
16576,6522
16611,6519
16638,6513
16650,6509
16671,6497
16693,6480
16714,6461
16729,6443
16733,6436
16736,6427
16738,6412
16740,6390
16741,6360
16741,6332
16741,6298
16740,6274
16739,6258
16738,6247
16735,6242
16732,6239
16731,6238
16722,6237
16705,6236
16682,6235
16655,6235
16649,6235
16612,6235
16584,6237
16562,6240
16544,6244
16498,6262
16462,6283
16436,6309
16419,6339
16410,6374
16410,6391
16044,6391
16044,6355
16048,6316
16051,6301
16069,6243
16097,6190
16134,6142
16179,6100
16232,6064
16292,6034
16343,6016
16378,6007
16411,5999
16444,5994
16480,5990
16521,5988
16569,5986
16613,5986
16742,5986
16739,5947
16732,5905
16717,5869
16695,5839
16666,5818
16641,5807
16605,5801
16561,5800
16513,5804
16462,5813
16410,5827
16359,5846
16323,5862
16305,5871
16291,5877
16284,5879
16284,5879
16282,5874
16276,5860
16267,5839
16255,5812
16242,5780
16229,5747
16175,5617
16213,5610
16230,5607
16255,5602
16286,5595
16321,5587
16358,5578
16373,5574
16437,5560
16493,5548
16543,5541
16590,5536
16635,5535
16680,5537
" /> 
<polyline style="fill-rule:evenodd;"
points="18126,5022
18172,5022
18188,5022
18403,5024
18406,5848
18406,5960
18406,6061
18407,6153
18407,6235
18407,6309
18407,6375
18408,6433
18408,6484
18409,6528
18410,6566
18411,6598
18412,6626
18413,6649
18414,6668
18416,6684
18418,6696
18420,6706
18422,6715
18425,6722
18428,6728
18432,6734
18435,6740
18440,6746
18440,6748
18455,6772
18248,6771
18041,6770
18038,6724
18037,6702
18035,6690
18033,6685
18030,6686
18027,6688
18016,6699
17997,6713
17974,6727
17949,6742
17925,6755
17906,6763
17862,6777
17812,6787
17759,6792
17707,6793
17659,6788
17659,6788
17594,6772
17533,6746
17477,6711
17427,6668
17382,6616
17344,6557
17312,6491
17295,6442
17284,6402
17276,6362
17270,6322
17267,6277
17266,6227
17266,6187
17665,6187
17667,6255
17673,6314
17683,6364
17698,6405
17717,6439
17741,6465
17769,6483
17783,6490
17796,6494
17810,6496
17829,6496
17849,6495
17889,6492
17920,6485
17930,6481
17952,6471
17976,6458
17987,6452
18014,6434
18014,5872
17984,5855
17942,5834
17900,5822
17858,5819
17819,5823
17783,5835
17753,5856
17743,5865
17719,5897
17700,5936
17685,5982
17675,6036
17668,6099
17665,6171
17665,6187
17266,6187
17266,6170
17271,6081
17280,6000
17294,5928
17313,5861
17338,5800
17346,5782
17382,5723
17424,5671
17473,5625
17527,5589
17585,5561
17620,5550
17655,5543
17696,5539
17741,5537
17786,5539
17827,5543
17861,5550
17900,5563
17939,5579
17972,5598
17990,5610
18003,5620
18011,5625
18013,5626
18014,5621
18015,5606
18015,5582
18015,5551
18016,5513
18016,5470
18016,5422
18016,5373
18016,5311
18016,5258
18016,5214
18015,5178
18014,5149
18012,5125
18010,5106
18008,5091
18004,5079
18000,5069
17994,5059
17988,5049
17987,5047
17979,5034
17974,5026
17973,5024
17978,5023
17993,5023
18017,5022
18047,5022
18084,5022
18126,5022
" /> 
<polyline style="fill-rule:evenodd;"
points="14359,4660
14400,4674
14438,4696
14471,4726
14500,4764
14513,4788
14524,4822
14529,4861
14529,4901
14522,4938
14504,4982
14478,5020
14445,5052
14406,5077
14364,5093
14319,5100
14272,5098
14249,5093
14204,5076
14164,5049
14130,5014
14103,4971
14101,4967
14093,4949
14088,4935
14085,4919
14084,4899
14084,4878
14084,4852
14086,4833
14089,4818
14094,4802
14101,4787
14126,4745
14158,4710
14194,4684
14233,4666
14275,4656
14317,4654
14359,4660
" /> 
</g>
<g style="fill:#000000; fill-opacity:1.0; 
stroke:#000000; stroke-width:59.0551; stroke-opacity:1; 
stroke-linecap:round; stroke-linejoin:round;">
</g>
<g style="fill:#000000; fill-opacity:0.0; 
stroke:#000000; stroke-width:59.0551; stroke-opacity:1; 
stroke-linecap:round; stroke-linejoin:round;">
<path d="M6574 16496
L9724 16496
" />
<path d="M6574 19448
L9724 19448
" />
<path d="M9724 16496
L9724 19448
" />
<path d="M6574 16496
L6574 19448
" />
<path d="M11771 15059
L9409 15059
" />
<path d="M9409 13287
L11771 13287
" />
<path d="M21299 8129
L18937 8129
" />
<path d="M18937 6358
L21299 6358
" />
<path d="M23346 16043
L25708 16043
" />
<path d="M25708 17814
L23346 17814
" />
</g>
<g style="fill:#000000; fill-opacity:0.0; 
stroke:#000000; stroke-width:39.3701; stroke-opacity:1; 
stroke-linecap:round; stroke-linejoin:round;">
<path d="M14813 10787
L14813 10512
" />
<path d="M14143 10787
L14143 10512
" />
<path d="M14813.2 10512.1 A334.815 334.815 0.0 0 0 14143.5 10512.1 " />
<path d="M14143.5 10787.1 A334.815 334.815 0.0 0 0 14813.2 10787.1 " />
<path d="M13159 10787
L13159 10512
" />
<path d="M12489 10787
L12489 10512
" />
<path d="M13159.6 10512.1 A334.815 334.815 0.0 0 0 12490 10512.1 " />
<path d="M12490 10787.1 A334.815 334.815 0.0 0 0 13159.6 10787.1 " />
<path d="M16466 10787
L16466 10512
" />
<path d="M15797 10787
L15797 10512
" />
<path d="M16466.7 10512.1 A334.815 334.815 0.0 0 0 15797.1 10512.1 " />
<path d="M15797.1 10787.1 A334.815 334.815 0.0 0 0 16466.7 10787.1 " />
<path d="M15679 9133
L15679 8858
" />
<path d="M15009 9133
L15009 8858
" />
<path d="M15679.3 8858.56 A334.815 334.815 0.0 0 0 15009.7 8858.56 " />
<path d="M15009.7 9133.56 A334.815 334.815 0.0 0 0 15679.3 9133.56 " />
<path d="M13947 9133
L13947 8858
" />
<path d="M13277 9133
L13277 8858
" />
<path d="M13947 8858.56 A334.815 334.815 0.0 0 0 13277.4 8858.56 " />
<path d="M13277.4 9133.56 A334.815 334.815 0.0 0 0 13947 9133.56 " />
<circle cx="1118.11" cy="9370.08" r="374.016" /> 
<circle cx="5118.11" cy="9370.08" r="374.016" /> 
<circle cx="22661.4" cy="4094.49" r="374.016" /> 
<circle cx="18661.4" cy="4094.49" r="374.016" /> 
<circle cx="1181.1" cy="7165.35" r="374.016" /> 
<circle cx="5181.1" cy="7165.35" r="374.016" /> 
<circle cx="15669.3" cy="2598.43" r="374.016" /> 
<circle cx="11669.3" cy="2598.43" r="374.016" /> 
<circle cx="11677.2" cy="4566.93" r="374.016" /> 
<circle cx="7677.17" cy="4566.93" r="374.016" /> 
<circle cx="23425.2" cy="13976.4" r="374.016" /> 
<polyline fill="none;"
points="23799,15610
23051,15610
23051,14862
23799,14862
23799,15610
" /> 
<circle cx="13271.7" cy="15653.5" r="374.016" /> 
<polyline fill="none;"
points="13645,17287
12897,17287
12897,16539
13645,16539
13645,17287
" /> 
<circle cx="8074.8" cy="9905.51" r="374.016" /> 
<polyline fill="none;"
points="8448,11539
7700,11539
7700,10791
8448,10791
8448,11539
" /> 
<circle cx="7090.55" cy="1007.87" r="374.016" /> 
<polyline fill="none;"
points="7464,2641
6716,2641
6716,1893
7464,1893
7464,2641
" /> 
<path d="M16480 15594
L16480 16374
" />
<path d="M17220 15594
L17220 16374
" />
<path d="M16480.1 16374.3 A370.315 370.315 0.0 0 0 17220.7 16374.3 " />
<path d="M17220.7 15594.3 A370.315 370.315 0.0 0 0 16480.1 15594.3 " />
<path d="M18448 15594
L18448 16374
" />
<path d="M19189 15594
L19189 16374
" />
<path d="M18448.6 16374.3 A370.315 370.315 0.0 0 0 19189.2 16374.3 " />
<path d="M19189.2 15594.3 A370.315 370.315 0.0 0 0 18448.6 15594.3 " />
<path d="M20417 15594
L20417 16374
" />
<path d="M21157 15594
L21157 16374
" />
<path d="M20417.1 16374.3 A370.315 370.315 0.0 0 0 21157.7 16374.3 " />
<path d="M21157.7 15594.3 A370.315 370.315 0.0 0 0 20417.1 15594.3 " />
<path d="M26814 13529
L27594 13529
" />
<path d="M26814 12789
L27594 12789
" />
<path d="M27594.7 13529.8 A370.315 370.315 0.0 0 0 27594.7 12789.1 " />
<path d="M26814.7 12789.1 A370.315 370.315 0.0 0 0 26814.7 13529.8 " />
<path d="M26814 11561
L27594 11561
" />
<path d="M26814 10820
L27594 10820
" />
<path d="M27594.7 11561.3 A370.315 370.315 0.0 0 0 27594.7 10820.6 " />
<path d="M26814.7 10820.6 A370.315 370.315 0.0 0 0 26814.7 11561.3 " />
<path d="M3582 10807
L3582 10807
" />
<path d="M3582 11555
L3582 11555
" />
<path d="M3582.68 10807.1 A374.016 374.016 0.0 0 0 3582.68 11555.1 " />
<path d="M3582.68 11555.1 A374.016 374.016 0.0 0 0 3582.68 10807.1 " />
<path d="M3582 12381
L3582 12381
" />
<path d="M3582 13129
L3582 13129
" />
<path d="M3582.68 12381.9 A374.016 374.016 0.0 0 0 3582.68 13129.9 " />
<path d="M3582.68 13129.9 A374.016 374.016 0.0 0 0 3582.68 12381.9 " />
<path d="M3582 13956
L3582 13956
" />
<path d="M3582 14704
L3582 14704
" />
<path d="M3582.68 13956.7 A374.016 374.016 0.0 0 0 3582.68 14704.7 " />
<path d="M3582.68 14704.7 A374.016 374.016 0.0 0 0 3582.68 13956.7 " />
<path d="M6889 17913
L6889 17913
" />
<path d="M7637 17913
L7637 17913
" />
<path d="M6889.76 17913.4 A374.016 374.016 0.0 0 0 7637.8 17913.4 " />
<path d="M7637.8 17913.4 A374.016 374.016 0.0 0 0 6889.76 17913.4 " />
<path d="M8464 17913
L8464 17913
" />
<path d="M9212 17913
L9212 17913
" />
<path d="M8464.57 17913.4 A374.016 374.016 0.0 0 0 9212.6 17913.4 " />
<path d="M9212.6 17913.4 A374.016 374.016 0.0 0 0 8464.57 17913.4 " />
<polyline fill="none;"
points="11948,13799
11948,14547
11200,14547
11200,13799
11948,13799
" /> 
<circle cx="9606.3" cy="14173.2" r="374.016" /> 
<polyline fill="none;"
points="21476,6870
21476,7618
20728,7618
20728,6870
21476,6870
" /> 
<circle cx="19133.9" cy="7244.09" r="374.016" /> 
<polyline fill="none;"
points="23169,17303
23169,16555
23917,16555
23917,17303
23169,17303
" /> 
<circle cx="25511.8" cy="16929.1" r="374.016" /> 
</g>
<g style="fill:#000000; fill-opacity:0.0; 
stroke:#000000; stroke-width:59.0551; stroke-opacity:1; 
stroke-linecap:round; stroke-linejoin:round;">
<path d="M11140 8830
L11140 9308
L11168 9364
L11196 9392
L11253 9420
L11365 9420
L11421 9392
L11449 9364
L11478 9308
L11478 8830
" />
<path d="M12068 9420
L11731 9420
" />
<path d="M11899 9420
L11899 8830
L11843 8914
L11787 8970
L11731 8998
" />
<path d="M9157 8578
L8876 8578
L8876 7987
" />
<path d="M9354 8578
L9354 7987
L9551 8409
L9748 7987
L9748 8578
" />
<path d="M10338 8578
L10001 8578
" />
<path d="M10169 8578
L10169 7987
L10113 8071
L10057 8128
L10001 8156
" />
<path d="M10676 8240
L10619 8212
L10591 8184
L10563 8128
L10563 8100
L10591 8043
L10619 8015
L10676 7987
L10788 7987
L10844 8015
L10872 8043
L10901 8100
L10901 8128
L10872 8184
L10844 8212
L10788 8240
L10676 8240
L10619 8268
L10591 8296
L10563 8353
L10563 8465
L10591 8521
L10619 8550
L10676 8578
L10788 8578
L10844 8550
L10872 8521
L10901 8465
L10901 8353
L10872 8296
L10844 8268
L10788 8240
" />
<path d="M11097 7987
L11491 7987
L11238 8578
" />
<path d="M11997 7987
L11716 7987
L11688 8268
L11716 8240
L11772 8212
L11913 8212
L11969 8240
L11997 8268
L12025 8325
L12025 8465
L11997 8521
L11969 8550
L11913 8578
L11772 8578
L11716 8550
L11688 8521
" />
<path d="M12147 10763
L11809 10763
" />
<path d="M11978 10763
L11978 10172
L11922 10257
L11865 10313
L11809 10341
" />
<path d="M17359 10818
L17359 10227
L17500 10227
L17584 10255
L17640 10312
L17668 10368
L17696 10480
L17696 10565
L17668 10677
L17640 10733
L17584 10790
L17500 10818
L17359 10818
" />
<path d="M18259 10818
L17921 10818
" />
<path d="M18090 10818
L18090 10227
L18034 10312
L17978 10368
L17921 10396
" />
<path d="M19118 9856
L18780 9856
" />
<path d="M18949 9856
L18949 9265
L18893 9350
L18837 9406
L18780 9434
" />
<path d="M19371 9856
L19371 9265
L19708 9856
L19708 9265
" />
<path d="M20243 9462
L20243 9856
" />
<path d="M20102 9237
L19962 9659
L20327 9659
" />
<path d="M20665 9265
L20721 9265
L20777 9293
L20805 9322
L20833 9378
L20861 9490
L20861 9631
L20833 9743
L20805 9800
L20777 9828
L20721 9856
L20665 9856
L20608 9828
L20580 9800
L20552 9743
L20524 9631
L20524 9490
L20552 9378
L20580 9322
L20608 9293
L20665 9265
" />
<path d="M21227 9265
L21283 9265
L21339 9293
L21368 9322
L21396 9378
L21424 9490
L21424 9631
L21396 9743
L21368 9800
L21339 9828
L21283 9856
L21227 9856
L21171 9828
L21143 9800
L21115 9743
L21086 9631
L21086 9490
L21115 9378
L21143 9322
L21171 9293
L21227 9265
" />
<path d="M21986 9856
L21649 9856
" />
<path d="M21818 9856
L21818 9265
L21761 9350
L21705 9406
L21649 9434
" />
<path d="M17280 12786
L17280 12196
L17421 12196
L17505 12224
L17561 12280
L17589 12336
L17618 12449
L17618 12533
L17589 12646
L17561 12702
L17505 12758
L17421 12786
L17280 12786
" />
<path d="M17843 12252
L17871 12224
L17927 12196
L18068 12196
L18124 12224
L18152 12252
L18180 12308
L18180 12365
L18152 12449
L17814 12786
L18180 12786
" />
<path d="M18655 13967
L18318 13967
" />
<path d="M18487 13967
L18487 13377
L18430 13461
L18374 13517
L18318 13546
" />
<path d="M18908 13967
L18908 13377
L19246 13967
L19246 13377
" />
<path d="M19780 13574
L19780 13967
" />
<path d="M19640 13349
L19499 13771
L19865 13771
" />
<path d="M20202 13377
L20258 13377
L20314 13405
L20343 13433
L20371 13489
L20399 13602
L20399 13742
L20371 13855
L20343 13911
L20314 13939
L20258 13967
L20202 13967
L20146 13939
L20118 13911
L20089 13855
L20061 13742
L20061 13602
L20089 13489
L20118 13433
L20146 13405
L20202 13377
" />
<path d="M20764 13377
L20821 13377
L20877 13405
L20905 13433
L20933 13489
L20961 13602
L20961 13742
L20933 13855
L20905 13911
L20877 13939
L20821 13967
L20764 13967
L20708 13939
L20680 13911
L20652 13855
L20624 13742
L20624 13602
L20652 13489
L20680 13433
L20708 13405
L20764 13377
" />
<path d="M21524 13967
L21186 13967
" />
<path d="M21355 13967
L21355 13377
L21299 13461
L21242 13517
L21186 13546
" />
<path d="M1712 8613
L1515 8332
" />
<path d="M1375 8613
L1375 8023
L1600 8023
L1656 8051
L1684 8079
L1712 8135
L1712 8219
L1684 8276
L1656 8304
L1600 8332
L1375 8332
" />
<path d="M2218 8023
L2106 8023
L2050 8051
L2021 8079
L1965 8163
L1937 8276
L1937 8501
L1965 8557
L1993 8585
L2050 8613
L2162 8613
L2218 8585
L2246 8557
L2275 8501
L2275 8360
L2246 8304
L2218 8276
L2162 8248
L2050 8248
L1993 8276
L1965 8304
L1937 8360
" />
<path d="M3217 8613
L2879 8613
" />
<path d="M3048 8613
L3048 8023
L2992 8107
L2935 8163
L2879 8191
" />
<path d="M3470 8613
L3470 8023
L3667 8444
L3863 8023
L3863 8613
" />
<path d="M19507 5464
L19311 5182
" />
<path d="M19170 5464
L19170 4873
L19395 4873
L19451 4901
L19479 4929
L19507 4985
L19507 5070
L19479 5126
L19451 5154
L19395 5182
L19170 5182
" />
<path d="M20014 5070
L20014 5464
" />
<path d="M19873 4845
L19732 5267
L20098 5267
" />
<path d="M21133 5542
L20795 5542
" />
<path d="M20964 5542
L20964 4952
L20908 5036
L20852 5092
L20795 5120
" />
<path d="M21723 5542
L21526 5261
" />
<path d="M21386 5542
L21386 4952
L21611 4952
L21667 4980
L21695 5008
L21723 5064
L21723 5149
L21695 5205
L21667 5233
L21611 5261
L21386 5261
" />
<path d="M1633 5621
L1437 5340
" />
<path d="M1296 5621
L1296 5030
L1521 5030
L1577 5059
L1605 5087
L1633 5143
L1633 5227
L1605 5284
L1577 5312
L1521 5340
L1296 5340
" />
<path d="M1830 5030
L2196 5030
L1999 5255
L2083 5255
L2140 5284
L2168 5312
L2196 5368
L2196 5508
L2168 5565
L2140 5593
L2083 5621
L1915 5621
L1858 5593
L1830 5565
" />
<path d="M1279 5953
L1307 5925
L1363 5897
L1504 5897
L1560 5925
L1588 5953
L1616 6009
L1616 6065
L1588 6150
L1251 6487
L1616 6487
" />
<path d="M1841 5953
L1870 5925
L1926 5897
L2066 5897
L2123 5925
L2151 5953
L2179 6009
L2179 6065
L2151 6150
L1813 6487
L2179 6487
" />
<path d="M2432 6487
L2432 5897
" />
<path d="M2488 6262
L2657 6487
" />
<path d="M2657 6093
L2432 6318
" />
<path d="M13484 3928
L13287 3647
" />
<path d="M13146 3928
L13146 3338
L13371 3338
L13428 3366
L13456 3394
L13484 3450
L13484 3534
L13456 3591
L13428 3619
L13371 3647
L13146 3647
" />
<path d="M14046 3928
L13709 3928
" />
<path d="M13877 3928
L13877 3338
L13821 3422
L13765 3478
L13709 3506
" />
<path d="M14884 3928
L14547 3928
" />
<path d="M14715 3928
L14715 3338
L14659 3422
L14603 3478
L14547 3506
" />
<path d="M15390 3338
L15278 3338
L15222 3366
L15194 3394
L15137 3478
L15109 3591
L15109 3816
L15137 3872
L15165 3900
L15222 3928
L15334 3928
L15390 3900
L15419 3872
L15447 3816
L15447 3675
L15419 3619
L15390 3591
L15334 3562
L15222 3562
L15165 3591
L15137 3619
L15109 3675
" />
<path d="M15700 3928
L15700 3338
" />
<path d="M15756 3703
L15925 3928
" />
<path d="M15925 3534
L15700 3759
" />
<path d="M8326 5936
L8129 5655
" />
<path d="M7989 5936
L7989 5345
L8214 5345
L8270 5374
L8298 5402
L8326 5458
L8326 5542
L8298 5598
L8270 5627
L8214 5655
L7989 5655
" />
<path d="M8551 5402
L8579 5374
L8636 5345
L8776 5345
L8832 5374
L8861 5402
L8889 5458
L8889 5514
L8861 5598
L8523 5936
L8889 5936
" />
<path d="M9952 5936
L9614 5936
" />
<path d="M9783 5936
L9783 5345
L9727 5430
L9670 5486
L9614 5514
" />
<path d="M10205 5936
L10205 5345
" />
<path d="M10542 5936
L10289 5598
" />
<path d="M10542 5345
L10205 5683
" />
</g>
<g style="fill:#000000; fill-opacity:0.0; 
stroke:#000000; stroke-width:39.3701; stroke-opacity:1; 
stroke-linecap:round; stroke-linejoin:round;">
<path d="M1548 16742
L1670 16742
L1604 16817
L1632 16817
L1651 16826
L1661 16836
L1670 16855
L1670 16901
L1661 16920
L1651 16930
L1632 16939
L1576 16939
L1557 16930
L1548 16920
" />
</g>
<g style="fill:#000000; fill-opacity:0.0; 
stroke:#000000; stroke-width:59.0551; stroke-opacity:1; 
stroke-linecap:round; stroke-linejoin:round;">
<path d="M2322 18562
L2230 18562
" />
<path d="M2230 18707
L2230 18431
L2362 18431
" />
<path d="M1550 18682
L1756 18419
" />
<path d="M1550 18419
L1756 18682
" />
</g>
<g style="fill:#000000; fill-opacity:0.0; 
stroke:#000000; stroke-width:39.3701; stroke-opacity:1; 
stroke-linecap:round; stroke-linejoin:round;">
<path d="M2257 16742
L2379 16742
L2313 16817
L2341 16817
L2360 16826
L2369 16836
L2379 16855
L2379 16901
L2369 16920
L2360 16930
L2341 16939
L2285 16939
L2266 16930
L2257 16920
" />
<path d="M27532 16742
L27654 16742
L27589 16817
L27617 16817
L27635 16826
L27645 16836
L27654 16855
L27654 16901
L27645 16920
L27635 16930
L27617 16939
L27560 16939
L27542 16930
L27532 16920
" />
</g>
<g style="fill:#000000; fill-opacity:0.0; 
stroke:#000000; stroke-width:59.0551; stroke-opacity:1; 
stroke-linecap:round; stroke-linejoin:round;">
<path d="M28307 18562
L28215 18562
" />
<path d="M28215 18707
L28215 18431
L28346 18431
" />
<path d="M27534 18682
L27740 18419
" />
<path d="M27534 18419
L27740 18682
" />
</g>
<g style="fill:#000000; fill-opacity:0.0; 
stroke:#000000; stroke-width:39.3701; stroke-opacity:1; 
stroke-linecap:round; stroke-linejoin:round;">
<path d="M28241 16742
L28363 16742
L28297 16817
L28325 16817
L28344 16826
L28353 16836
L28363 16855
L28363 16901
L28353 16920
L28344 16930
L28325 16939
L28269 16939
L28250 16930
L28241 16920
" />
<path d="M27532 994
L27654 994
L27589 1069
L27617 1069
L27635 1078
L27645 1088
L27654 1107
L27654 1153
L27645 1172
L27635 1182
L27617 1191
L27560 1191
L27542 1182
L27532 1172
" />
</g>
<g style="fill:#000000; fill-opacity:0.0; 
stroke:#000000; stroke-width:59.0551; stroke-opacity:1; 
stroke-linecap:round; stroke-linejoin:round;">
<path d="M28307 2814
L28215 2814
" />
<path d="M28215 2959
L28215 2683
L28346 2683
" />
<path d="M27534 2934
L27740 2671
" />
<path d="M27534 2671
L27740 2934
" />
</g>
<g style="fill:#000000; fill-opacity:0.0; 
stroke:#000000; stroke-width:39.3701; stroke-opacity:1; 
stroke-linecap:round; stroke-linejoin:round;">
<path d="M28241 994
L28363 994
L28297 1069
L28325 1069
L28344 1078
L28353 1088
L28363 1107
L28363 1153
L28353 1172
L28344 1182
L28325 1191
L28269 1191
L28250 1182
L28241 1172
" />
<path d="M1548 994
L1670 994
L1604 1069
L1632 1069
L1651 1078
L1661 1088
L1670 1107
L1670 1153
L1661 1172
L1651 1182
L1632 1191
L1576 1191
L1557 1182
L1548 1172
" />
</g>
<g style="fill:#000000; fill-opacity:0.0; 
stroke:#000000; stroke-width:59.0551; stroke-opacity:1; 
stroke-linecap:round; stroke-linejoin:round;">
<path d="M2322 2814
L2230 2814
" />
<path d="M2230 2959
L2230 2683
L2362 2683
" />
<path d="M1550 2934
L1756 2671
" />
<path d="M1550 2671
L1756 2934
" />
</g>
<g style="fill:#000000; fill-opacity:0.0; 
stroke:#000000; stroke-width:39.3701; stroke-opacity:1; 
stroke-linecap:round; stroke-linejoin:round;">
<path d="M2257 994
L2379 994
L2313 1069
L2341 1069
L2360 1078
L2369 1088
L2379 1107
L2379 1153
L2369 1172
L2360 1182
L2341 1191
L2285 1191
L2266 1182
L2257 1172
" />
</g>
<g style="fill:#000000; fill-opacity:0.0; 
stroke:#000000; stroke-width:59.0551; stroke-opacity:1; 
stroke-linecap:round; stroke-linejoin:round;">
<path d="M24940 15092
L24912 15120
L24828 15149
L24772 15149
L24687 15120
L24631 15064
L24603 15008
L24575 14895
L24575 14811
L24603 14699
L24631 14642
L24687 14586
L24772 14558
L24828 14558
L24912 14586
L24940 14614
" />
<path d="M25475 14558
L25194 14558
L25165 14839
L25194 14811
L25250 14783
L25390 14783
L25447 14811
L25475 14839
L25503 14895
L25503 15036
L25475 15092
L25447 15120
L25390 15149
L25250 15149
L25194 15120
L25165 15092
" />
<path d="M24755 15857
L24417 15857
" />
<path d="M24586 15857
L24586 15267
L24530 15351
L24474 15407
L24417 15435
" />
<path d="M25120 15267
L25177 15267
L25233 15295
L25261 15323
L25289 15379
L25317 15492
L25317 15632
L25289 15745
L25261 15801
L25233 15829
L25177 15857
L25120 15857
L25064 15829
L25036 15801
L25008 15745
L24980 15632
L24980 15492
L25008 15379
L25036 15323
L25064 15295
L25120 15267
" />
<path d="M25683 15267
L25739 15267
L25795 15295
L25823 15323
L25852 15379
L25880 15492
L25880 15632
L25852 15745
L25823 15801
L25795 15829
L25739 15857
L25683 15857
L25627 15829
L25598 15801
L25570 15745
L25542 15632
L25542 15492
L25570 15379
L25598 15323
L25627 15295
L25683 15267
" />
<path d="M26386 15464
L26386 15857
" />
<path d="M26133 15464
L26133 15773
L26161 15829
L26217 15857
L26302 15857
L26358 15829
L26386 15801
" />
<path d="M26864 15548
L26667 15548
" />
<path d="M26667 15857
L26667 15267
L26948 15267
" />
<path d="M11594 17297
L11566 17325
L11482 17353
L11425 17353
L11341 17325
L11285 17269
L11257 17213
L11228 17100
L11228 17016
L11257 16903
L11285 16847
L11341 16791
L11425 16763
L11482 16763
L11566 16791
L11594 16819
" />
<path d="M12100 16763
L11988 16763
L11931 16791
L11903 16819
L11847 16903
L11819 17016
L11819 17241
L11847 17297
L11875 17325
L11931 17353
L12044 17353
L12100 17325
L12128 17297
L12156 17241
L12156 17100
L12128 17044
L12100 17016
L12044 16988
L11931 16988
L11875 17016
L11847 17044
L11819 17100
" />
<path d="M12166 18328
L11829 18328
" />
<path d="M11998 18328
L11998 17737
L11941 17821
L11885 17878
L11829 17906
" />
<path d="M12532 17737
L12588 17737
L12644 17765
L12672 17793
L12701 17850
L12729 17962
L12729 18103
L12701 18215
L12672 18271
L12644 18300
L12588 18328
L12532 18328
L12476 18300
L12447 18271
L12419 18215
L12391 18103
L12391 17962
L12419 17850
L12447 17793
L12476 17765
L12532 17737
" />
<path d="M13094 17737
L13151 17737
L13207 17765
L13235 17793
L13263 17850
L13291 17962
L13291 18103
L13263 18215
L13235 18271
L13207 18300
L13151 18328
L13094 18328
L13038 18300
L13010 18271
L12982 18215
L12954 18103
L12954 17962
L12982 17850
L13010 17793
L13038 17765
L13094 17737
" />
<path d="M13797 17934
L13797 18328
" />
<path d="M13544 17934
L13544 18243
L13572 18300
L13629 18328
L13713 18328
L13769 18300
L13797 18271
" />
<path d="M14275 18018
L14079 18018
" />
<path d="M14079 18328
L14079 17737
L14360 17737
" />
<path d="M9901 11077
L9873 11105
L9789 11133
L9732 11133
L9648 11105
L9592 11048
L9564 10992
L9535 10880
L9535 10795
L9564 10683
L9592 10627
L9648 10570
L9732 10542
L9789 10542
L9873 10570
L9901 10598
" />
<path d="M10464 11133
L10126 11133
" />
<path d="M10295 11133
L10295 10542
L10239 10627
L10182 10683
L10126 10711
" />
<path d="M9046 11622
L9074 11594
L9131 11566
L9271 11566
L9327 11594
L9356 11622
L9384 11678
L9384 11735
L9356 11819
L9018 12156
L9384 12156
" />
<path d="M9637 12100
L9665 12128
L9637 12156
L9609 12128
L9637 12100
L9637 12156
" />
<path d="M9890 11622
L9918 11594
L9974 11566
L10115 11566
L10171 11594
L10199 11622
L10227 11678
L10227 11735
L10199 11819
L9862 12156
L10227 12156
" />
<path d="M10733 11763
L10733 12156
" />
<path d="M10480 11763
L10480 12072
L10508 12128
L10565 12156
L10649 12156
L10705 12128
L10733 12100
" />
<path d="M11212 11847
L11015 11847
" />
<path d="M11015 12156
L11015 11566
L11296 11566
" />
<path d="M8326 2730
L8298 2758
L8214 2786
L8158 2786
L8073 2758
L8017 2702
L7989 2646
L7961 2533
L7961 2449
L7989 2336
L8017 2280
L8073 2224
L8158 2196
L8214 2196
L8298 2224
L8326 2252
" />
<path d="M8551 2252
L8579 2224
L8636 2196
L8776 2196
L8832 2224
L8861 2252
L8889 2308
L8889 2365
L8861 2449
L8523 2786
L8889 2786
" />
<path d="M5929 3148
L5957 3120
L6013 3091
L6154 3091
L6210 3120
L6238 3148
L6266 3204
L6266 3260
L6238 3345
L5901 3682
L6266 3682
" />
<path d="M6491 3148
L6519 3120
L6576 3091
L6716 3091
L6773 3120
L6801 3148
L6829 3204
L6829 3260
L6801 3345
L6463 3682
L6829 3682
" />
<path d="M7335 3288
L7335 3682
" />
<path d="M7082 3288
L7082 3598
L7110 3654
L7166 3682
L7251 3682
L7307 3654
L7335 3626
" />
<path d="M7813 3373
L7616 3373
" />
<path d="M7616 3682
L7616 3091
L7897 3091
" />
<path d="M16394 14046
L16394 13456
L16619 13456
L16676 13484
L16704 13512
L16732 13568
L16732 13652
L16704 13709
L16676 13737
L16619 13765
L16394 13765
" />
<path d="M16957 13512
L16985 13484
L17041 13456
L17182 13456
L17238 13484
L17266 13512
L17294 13568
L17294 13624
L17266 13709
L16929 14046
L17294 14046
" />
<path d="M27674 15306
L27674 14715
L27899 14715
L27955 14744
L27983 14772
L28011 14828
L28011 14912
L27983 14969
L27955 14997
L27899 15025
L27674 15025
" />
<path d="M28208 14715
L28574 14715
L28377 14940
L28461 14940
L28517 14969
L28546 14997
L28574 15053
L28574 15194
L28546 15250
L28517 15278
L28461 15306
L28293 15306
L28236 15278
L28208 15250
" />
<path d="M7038 13113
L6448 13113
L6448 12888
L6476 12831
L6504 12803
L6560 12775
L6645 12775
L6701 12803
L6729 12831
L6757 12888
L6757 13113
" />
<path d="M6645 12269
L7038 12269
" />
<path d="M6420 12410
L6841 12550
L6841 12185
" />
<path d="M5410 17156
L5410 16566
L5635 16566
L5691 16594
L5719 16622
L5748 16678
L5748 16763
L5719 16819
L5691 16847
L5635 16875
L5410 16875
" />
<path d="M6282 16566
L6001 16566
L5973 16847
L6001 16819
L6057 16791
L6197 16791
L6254 16819
L6282 16847
L6310 16903
L6310 17044
L6282 17100
L6254 17128
L6197 17156
L6057 17156
L6001 17128
L5973 17100
" />
<path d="M6577 16251
L6577 15660
" />
<path d="M6858 16251
L6858 15660
L7196 16251
L7196 15660
" />
<path d="M7477 16251
L7477 15660
L7702 15660
L7758 15688
L7786 15717
L7814 15773
L7814 15857
L7786 15913
L7758 15942
L7702 15970
L7477 15970
" />
<path d="M8068 15660
L8068 16138
L8096 16195
L8124 16223
L8180 16251
L8293 16251
L8349 16223
L8377 16195
L8405 16138
L8405 15660
" />
<path d="M8602 15660
L8939 15660
" />
<path d="M8771 16251
L8771 15660
" />
<path d="M8024 14041
L8000 14065
L7927 14089
L7878 14089
L7805 14065
L7756 14016
L7732 13967
L7708 13870
L7708 13797
L7732 13699
L7756 13651
L7805 13602
L7878 13577
L7927 13577
L8000 13602
L8024 13626
" />
<path d="M8463 13748
L8463 14089
" />
<path d="M8341 13553
L8219 13919
L8536 13919
" />
<path d="M6723 14834
L6386 14834
" />
<path d="M6555 14834
L6555 14243
L6498 14327
L6442 14384
L6386 14412
" />
<path d="M7089 14243
L7145 14243
L7201 14271
L7230 14299
L7258 14356
L7286 14468
L7286 14609
L7258 14721
L7230 14777
L7201 14805
L7145 14834
L7089 14834
L7033 14805
L7005 14777
L6976 14721
L6948 14609
L6948 14468
L6976 14356
L7005 14299
L7033 14271
L7089 14243
" />
<path d="M7651 14243
L7708 14243
L7764 14271
L7792 14299
L7820 14356
L7848 14468
L7848 14609
L7820 14721
L7792 14777
L7764 14805
L7708 14834
L7651 14834
L7595 14805
L7567 14777
L7539 14721
L7511 14609
L7511 14468
L7539 14356
L7567 14299
L7595 14271
L7651 14243
" />
<path d="M8101 14440
L8101 14834
" />
<path d="M8101 14496
L8129 14468
L8186 14440
L8270 14440
L8326 14468
L8354 14524
L8354 14834
" />
<path d="M8832 14524
L8636 14524
" />
<path d="M8636 14834
L8636 14243
L8917 14243
" />
<path d="M17854 7927
L17826 7955
L17741 7983
L17685 7983
L17601 7955
L17544 7899
L17516 7843
L17488 7730
L17488 7646
L17516 7533
L17544 7477
L17601 7421
L17685 7393
L17741 7393
L17826 7421
L17854 7449
" />
<path d="M18051 7393
L18444 7393
L18191 7983
" />
<path d="M18866 8394
L18894 8366
L18951 8338
L19091 8338
L19147 8366
L19176 8394
L19204 8450
L19204 8506
L19176 8591
L18838 8928
L19204 8928
" />
<path d="M19429 8394
L19457 8366
L19513 8338
L19654 8338
L19710 8366
L19738 8394
L19766 8450
L19766 8506
L19738 8591
L19401 8928
L19766 8928
" />
<path d="M20132 8338
L20188 8338
L20244 8366
L20272 8394
L20300 8450
L20329 8562
L20329 8703
L20300 8816
L20272 8872
L20244 8900
L20188 8928
L20132 8928
L20075 8900
L20047 8872
L20019 8816
L19991 8703
L19991 8562
L20019 8450
L20047 8394
L20075 8366
L20132 8338
" />
<path d="M20582 8534
L20582 8928
" />
<path d="M20582 8591
L20610 8562
L20666 8534
L20750 8534
L20807 8562
L20835 8619
L20835 8928
" />
<path d="M21313 8619
L21116 8619
" />
<path d="M21116 8928
L21116 8338
L21397 8338
" />
<path d="M22421 17140
L22393 17168
L22308 17196
L22252 17196
L22168 17168
L22111 17111
L22083 17055
L22055 16943
L22055 16858
L22083 16746
L22111 16690
L22168 16633
L22252 16605
L22308 16605
L22393 16633
L22421 16661
" />
<path d="M22618 16605
L22983 16605
L22786 16830
L22871 16830
L22927 16858
L22955 16886
L22983 16943
L22983 17083
L22955 17140
L22927 17168
L22871 17196
L22702 17196
L22646 17168
L22618 17140
" />
<path d="M23731 18652
L23394 18652
" />
<path d="M23562 18652
L23562 18062
L23506 18146
L23450 18203
L23394 18231
" />
<path d="M24097 18062
L24153 18062
L24209 18090
L24237 18118
L24266 18174
L24294 18287
L24294 18428
L24266 18540
L24237 18596
L24209 18624
L24153 18652
L24097 18652
L24041 18624
L24012 18596
L23984 18540
L23956 18428
L23956 18287
L23984 18174
L24012 18118
L24041 18090
L24097 18062
" />
<path d="M24659 18062
L24715 18062
L24772 18090
L24800 18118
L24828 18174
L24856 18287
L24856 18428
L24828 18540
L24800 18596
L24772 18624
L24715 18652
L24659 18652
L24603 18624
L24575 18596
L24547 18540
L24519 18428
L24519 18287
L24547 18174
L24575 18118
L24603 18090
L24659 18062
" />
<path d="M25109 18259
L25109 18652
" />
<path d="M25109 18315
L25137 18287
L25194 18259
L25278 18259
L25334 18287
L25362 18343
L25362 18652
" />
<path d="M25840 18343
L25643 18343
" />
<path d="M25643 18652
L25643 18062
L25925 18062
" />
</g> 
</svg>
