G04 #@! TF.FileFunction,Copper,L2,Bot,Signal*
%FSLAX46Y46*%
G04 Gerber Fmt 4.6, Leading zero omitted, Abs format (unit mm)*
G04 Created by KiCad (PCBNEW 4.0.7+dfsg1-1~bpo9+1) date Sun Apr 15 22:39:30 2018*
%MOMM*%
%LPD*%
G01*
G04 APERTURE LIST*
%ADD10C,0.100000*%
%ADD11C,0.200000*%
%ADD12C,0.150000*%
%ADD13O,1.800860X2.499360*%
%ADD14C,2.000000*%
%ADD15R,2.000000X1.998980*%
%ADD16C,6.000000*%
%ADD17R,2.000000X2.000000*%
%ADD18O,1.981200X3.962400*%
%ADD19O,3.962400X1.981200*%
%ADD20O,2.000000X2.000000*%
%ADD21C,2.500000*%
%ADD22C,2.000000*%
%ADD23C,3.000000*%
%ADD24C,0.250000*%
G04 APERTURE END LIST*
D10*
D11*
X7364286Y-9288095D02*
X6497619Y-10588095D01*
X6497619Y-9288095D02*
X7364286Y-10588095D01*
X5569048Y-9907143D02*
X6002381Y-9907143D01*
X6002381Y-10588095D02*
X6002381Y-9288095D01*
X5383334Y-9288095D01*
X4888095Y-10092857D02*
X3897619Y-10092857D01*
X3402381Y-9288095D02*
X2597619Y-9288095D01*
X3030952Y-9783333D01*
X2845238Y-9783333D01*
X2721428Y-9845238D01*
X2659524Y-9907143D01*
X2597619Y-10030952D01*
X2597619Y-10340476D01*
X2659524Y-10464286D01*
X2721428Y-10526190D01*
X2845238Y-10588095D01*
X3216666Y-10588095D01*
X3340476Y-10526190D01*
X3402381Y-10464286D01*
D12*
X0Y0D02*
X76000000Y0D01*
X76000000Y0D02*
X76000000Y-50000000D01*
X0Y-50000000D02*
X76000000Y-50000000D01*
X0Y0D02*
X0Y-50000000D01*
D13*
X36775000Y-27050000D03*
X32575000Y-27050000D03*
X40975000Y-27050000D03*
X38975000Y-22850000D03*
X34575000Y-22850000D03*
D14*
X58185000Y-26924000D03*
D15*
X48025000Y-26924000D03*
D14*
X47990000Y-31652540D03*
D15*
X58150000Y-31652540D03*
D14*
X2840000Y-23800000D03*
X13000000Y-23800000D03*
X57560000Y-10400000D03*
X47400000Y-10400000D03*
X3000000Y-18200000D03*
X13160000Y-18200000D03*
X39800000Y-6600000D03*
X29640000Y-6600000D03*
X29660000Y-11600000D03*
X19500000Y-11600000D03*
D16*
X5000000Y-45000000D03*
X71000000Y-45000000D03*
X71000000Y-5000000D03*
X5000000Y-5000000D03*
D14*
X59500000Y-35500000D03*
D17*
X59500000Y-38700000D03*
D14*
X33710000Y-39760000D03*
D17*
X33710000Y-42960000D03*
D14*
X20510000Y-25160000D03*
D17*
X20510000Y-28360000D03*
D14*
X18010000Y-2560000D03*
D17*
X18010000Y-5760000D03*
D18*
X42800000Y-40600000D03*
X47800000Y-40600000D03*
X52800000Y-40600000D03*
D19*
X69100000Y-33425000D03*
X69100000Y-28425000D03*
D20*
X9100000Y-28400000D03*
X9100000Y-32400000D03*
X9100000Y-36400000D03*
X18450000Y-45500000D03*
X22450000Y-45500000D03*
D17*
X29400000Y-36000000D03*
D14*
X24400000Y-36000000D03*
D17*
X53600000Y-18400000D03*
D14*
X48600000Y-18400000D03*
D17*
X59800000Y-43000000D03*
D14*
X64800000Y-43000000D03*
D21*
X9100000Y-36400000D02*
X10314213Y-37614213D01*
X10314213Y-37614213D02*
X10564213Y-37614213D01*
X18525000Y-45575000D02*
X17525001Y-44575001D01*
D22*
X10564213Y-37614213D02*
X17525001Y-44575001D01*
X19185787Y-24225787D02*
X14400000Y-19440000D01*
D21*
X13160000Y-18200000D02*
X14400000Y-19440000D01*
D22*
X19185787Y-25200000D02*
X19185787Y-24225787D01*
X20600000Y-25200000D02*
X19185787Y-25200000D01*
X24400000Y-25200000D02*
X26250000Y-27050000D01*
X26250000Y-27050000D02*
X30050000Y-27050000D01*
X21600000Y-25200000D02*
X24400000Y-25200000D01*
D21*
X20600000Y-25200000D02*
X21600000Y-25200000D01*
X32575000Y-27050000D02*
X30050000Y-27050000D01*
X18010000Y-5760000D02*
X18010000Y-9260000D01*
X18000000Y-9270000D02*
X18000000Y-10160000D01*
X18010000Y-9260000D02*
X18000000Y-9270000D01*
D23*
X18000000Y-10160000D02*
X19440000Y-11600000D01*
D22*
X19440000Y-11600000D02*
X19440000Y-10840000D01*
D23*
X59500000Y-38700000D02*
X59500000Y-42700000D01*
X59500000Y-42700000D02*
X59800000Y-43000000D01*
X52825000Y-41575000D02*
X52825000Y-38600000D01*
X52825000Y-38600000D02*
X52825000Y-36175000D01*
X59600000Y-39000000D02*
X53225000Y-39000000D01*
X53225000Y-39000000D02*
X52825000Y-38600000D01*
X52825000Y-27275000D02*
X52825000Y-36175000D01*
X40975000Y-27050000D02*
X47927540Y-27050000D01*
X47927540Y-27050000D02*
X53050000Y-27050000D01*
X53050000Y-27050000D02*
X52825000Y-27275000D01*
X52825000Y-36175000D02*
X52825000Y-39725000D01*
X52900000Y-40400000D02*
X52825000Y-40475000D01*
X33500000Y-39725000D02*
X29875000Y-36100000D01*
X29875000Y-36100000D02*
X28925000Y-36100000D01*
X42825000Y-38725000D02*
X42825000Y-35493800D01*
X42825000Y-40475000D02*
X42825000Y-38725000D01*
X42825000Y-41575000D02*
X42825000Y-38725000D01*
X42850000Y-35468800D02*
X42850000Y-31750000D01*
X42825000Y-35493800D02*
X42850000Y-35468800D01*
X42825000Y-39725000D02*
X33500000Y-39725000D01*
X40127540Y-31652540D02*
X47990000Y-31652540D01*
X36775000Y-28300000D02*
X40127540Y-31652540D01*
X36775000Y-27050000D02*
X36775000Y-28300000D01*
X47940000Y-31750000D02*
X42850000Y-31750000D01*
X36799140Y-26999637D02*
X36799140Y-27274740D01*
X53600000Y-18800000D02*
X53600000Y-16600000D01*
X53600000Y-16600000D02*
X47400000Y-10400000D01*
X39800000Y-6600000D02*
X53760000Y-6600000D01*
X53760000Y-6600000D02*
X57560000Y-10400000D01*
X58185000Y-26924000D02*
X58185000Y-22800000D01*
X58185000Y-22800000D02*
X58185000Y-11025000D01*
X38975000Y-22850000D02*
X58135000Y-22850000D01*
X58135000Y-22850000D02*
X58185000Y-22800000D01*
X58185000Y-11025000D02*
X57560000Y-10400000D01*
X58185000Y-28425000D02*
X69650000Y-28425000D01*
X69650000Y-28425000D02*
X69750000Y-28525000D01*
X58185000Y-26747460D02*
X58185000Y-28425000D01*
X58185000Y-28425000D02*
X58185000Y-31617540D01*
X58185000Y-31617540D02*
X58150000Y-31652540D01*
X58125000Y-31725000D02*
X58100000Y-31750000D01*
X29660000Y-11600000D02*
X29660000Y-6620000D01*
X29660000Y-6620000D02*
X29640000Y-6600000D01*
X34575000Y-22850000D02*
X34575000Y-22725000D01*
X34575000Y-22725000D02*
X29600000Y-17750000D01*
X29600000Y-17750000D02*
X29600000Y-11600000D01*
D22*
X9100000Y-28400000D02*
X20800000Y-28400000D01*
X13000000Y-28400000D02*
X10750000Y-28400000D01*
X13000000Y-23800000D02*
X13000000Y-25213492D01*
X13000000Y-25213492D02*
X13000000Y-28400000D01*
X19800000Y-28400000D02*
X19790000Y-28410000D01*
D21*
X20800000Y-28400000D02*
X19800000Y-28400000D01*
X9100000Y-28400000D02*
X10750000Y-28400000D01*
D24*
G36*
X67250855Y-2490166D02*
X66575770Y-4115952D01*
X66574233Y-5876325D01*
X67246480Y-7503287D01*
X68490166Y-8749145D01*
X70115952Y-9424230D01*
X71876325Y-9425767D01*
X73503287Y-8753520D01*
X74500000Y-7758545D01*
X74500000Y-42242750D01*
X73509834Y-41250855D01*
X71884048Y-40575770D01*
X70123675Y-40574233D01*
X68496713Y-41246480D01*
X67250855Y-42490166D01*
X66575770Y-44115952D01*
X66574233Y-45876325D01*
X67246480Y-47503287D01*
X68241455Y-48500000D01*
X7757250Y-48500000D01*
X8749145Y-47509834D01*
X9424230Y-45884048D01*
X9425767Y-44123675D01*
X8753520Y-42496713D01*
X7509834Y-41250855D01*
X5884048Y-40575770D01*
X4123675Y-40574233D01*
X2496713Y-41246480D01*
X1500000Y-42241455D01*
X1500000Y-36400000D01*
X6424999Y-36400000D01*
X6628622Y-37423678D01*
X7208489Y-38291511D01*
X8422700Y-39505721D01*
X8422702Y-39505724D01*
X9290535Y-40085591D01*
X9684484Y-40163952D01*
X15037337Y-45516805D01*
X15053623Y-45598679D01*
X15633490Y-46466512D01*
X16633489Y-47466511D01*
X17501321Y-48046378D01*
X18525000Y-48250000D01*
X19548678Y-48046378D01*
X20416511Y-47466511D01*
X20996378Y-46598678D01*
X21200000Y-45575000D01*
X20996378Y-44551321D01*
X20416511Y-43683489D01*
X19416512Y-42683490D01*
X18548679Y-42103623D01*
X18466805Y-42087337D01*
X13051877Y-36672409D01*
X13035591Y-36590535D01*
X12455724Y-35722702D01*
X11702306Y-35219285D01*
X10991511Y-34508489D01*
X10123678Y-33928622D01*
X9100000Y-33724999D01*
X8076322Y-33928622D01*
X7208489Y-34508489D01*
X6628622Y-35376322D01*
X6424999Y-36400000D01*
X1500000Y-36400000D01*
X1500000Y-28400000D01*
X6425000Y-28400000D01*
X6628622Y-29423678D01*
X7208489Y-30291511D01*
X8076322Y-30871378D01*
X9100000Y-31075000D01*
X10750000Y-31075000D01*
X11773678Y-30871378D01*
X11843088Y-30825000D01*
X18706912Y-30825000D01*
X18776322Y-30871378D01*
X19800000Y-31075000D01*
X20800000Y-31075000D01*
X21823678Y-30871378D01*
X22691511Y-30291511D01*
X23271378Y-29423678D01*
X23475000Y-28400000D01*
X23320843Y-27625000D01*
X23395532Y-27625000D01*
X24535266Y-28764734D01*
X25321992Y-29290408D01*
X26250000Y-29475000D01*
X28956912Y-29475000D01*
X29026322Y-29521378D01*
X30050000Y-29725000D01*
X32313176Y-29725000D01*
X32575000Y-29777080D01*
X33464904Y-29600067D01*
X33575885Y-29525912D01*
X33598678Y-29521378D01*
X34034961Y-29229863D01*
X34072652Y-29419349D01*
X34706713Y-30368287D01*
X38059253Y-33720828D01*
X38634128Y-34104947D01*
X39008191Y-34354888D01*
X39925000Y-34537252D01*
X39925000Y-35368116D01*
X39900000Y-35493800D01*
X39900000Y-36800000D01*
X34711574Y-36800000D01*
X31943287Y-34031713D01*
X30994349Y-33397652D01*
X29875000Y-33175000D01*
X28925000Y-33175000D01*
X27805651Y-33397652D01*
X26856713Y-34031713D01*
X26222652Y-34980651D01*
X26000000Y-36100000D01*
X26222652Y-37219349D01*
X26856713Y-38168287D01*
X27805651Y-38802348D01*
X28598477Y-38960051D01*
X31431713Y-41793287D01*
X32380651Y-42427348D01*
X33500000Y-42650000D01*
X40113830Y-42650000D01*
X40122652Y-42694349D01*
X40756713Y-43643287D01*
X41705651Y-44277348D01*
X42825000Y-44500000D01*
X43944349Y-44277348D01*
X44893287Y-43643287D01*
X45527348Y-42694349D01*
X45750000Y-41575000D01*
X45750000Y-35594484D01*
X45775000Y-35468800D01*
X45775000Y-34675000D01*
X47940000Y-34675000D01*
X49059349Y-34452348D01*
X49900000Y-33890642D01*
X49900000Y-41575000D01*
X50122652Y-42694349D01*
X50756713Y-43643287D01*
X51705651Y-44277348D01*
X52825000Y-44500000D01*
X53944349Y-44277348D01*
X54893287Y-43643287D01*
X55527348Y-42694349D01*
X55680381Y-41925000D01*
X56575000Y-41925000D01*
X56575000Y-42700000D01*
X56797652Y-43819349D01*
X57431713Y-44768287D01*
X57731713Y-45068287D01*
X58680651Y-45702348D01*
X59800000Y-45924999D01*
X60919349Y-45702348D01*
X61868287Y-45068287D01*
X62502348Y-44119349D01*
X62724999Y-43000000D01*
X62502348Y-41880651D01*
X62425000Y-41764892D01*
X62425000Y-39502735D01*
X62525000Y-39000000D01*
X62302348Y-37880651D01*
X62244928Y-37794716D01*
X62202348Y-37580651D01*
X61568287Y-36631713D01*
X60619349Y-35997652D01*
X59500000Y-35775000D01*
X58380651Y-35997652D01*
X58264892Y-36075000D01*
X55750000Y-36075000D01*
X55750000Y-33396674D01*
X56031713Y-33818287D01*
X56980651Y-34452348D01*
X58100000Y-34675000D01*
X59219349Y-34452348D01*
X60168287Y-33818287D01*
X60193287Y-33793288D01*
X60827348Y-32844350D01*
X60832351Y-32819199D01*
X60887348Y-32736890D01*
X61007511Y-32132786D01*
X61110000Y-31617540D01*
X61110000Y-31350000D01*
X69247268Y-31350000D01*
X69750000Y-31449999D01*
X70869349Y-31227348D01*
X71818287Y-30593287D01*
X72452348Y-29644349D01*
X72674999Y-28525000D01*
X72452348Y-27405650D01*
X71818287Y-26456712D01*
X71718287Y-26356713D01*
X70769349Y-25722652D01*
X69650000Y-25500000D01*
X61110000Y-25500000D01*
X61110000Y-11025000D01*
X60887348Y-9905651D01*
X60887348Y-9905650D01*
X60253287Y-8956712D01*
X59628290Y-8331716D01*
X59628288Y-8331713D01*
X55828287Y-4531713D01*
X54879349Y-3897652D01*
X53760000Y-3675000D01*
X39800000Y-3675000D01*
X38680651Y-3897652D01*
X37731713Y-4531713D01*
X37097652Y-5480651D01*
X36875000Y-6600000D01*
X37097652Y-7719349D01*
X37731713Y-8668287D01*
X38680651Y-9302348D01*
X39800000Y-9525000D01*
X44649048Y-9525000D01*
X44475000Y-10400000D01*
X44697652Y-11519349D01*
X45331713Y-12468287D01*
X50675000Y-17811574D01*
X50675000Y-18800000D01*
X50897652Y-19919349D01*
X50901428Y-19925000D01*
X38975000Y-19925000D01*
X37855651Y-20147652D01*
X36906713Y-20781713D01*
X36816762Y-20916335D01*
X36643287Y-20656712D01*
X32525000Y-16538426D01*
X32525000Y-11901641D01*
X32585000Y-11600000D01*
X32585000Y-6620000D01*
X32362348Y-5500651D01*
X32362348Y-5500650D01*
X31728287Y-4551712D01*
X31708287Y-4531713D01*
X30759349Y-3897652D01*
X29640000Y-3675000D01*
X28520651Y-3897652D01*
X27571713Y-4531713D01*
X26937652Y-5480651D01*
X26715000Y-6600000D01*
X26735000Y-6700547D01*
X26735000Y-11298359D01*
X26675000Y-11600000D01*
X26675000Y-17750000D01*
X26897652Y-18869349D01*
X27531713Y-19818287D01*
X32088425Y-24375000D01*
X30050000Y-24375000D01*
X29026322Y-24578622D01*
X28956912Y-24625000D01*
X27254468Y-24625000D01*
X26114734Y-23485266D01*
X25328008Y-22959592D01*
X24400000Y-22775000D01*
X22693088Y-22775000D01*
X22623678Y-22728622D01*
X21600000Y-22525000D01*
X20909840Y-22525000D01*
X20900521Y-22511053D01*
X16887664Y-18498196D01*
X16871378Y-18416322D01*
X16291511Y-17548489D01*
X15051511Y-16308489D01*
X14183678Y-15728622D01*
X13160000Y-15524999D01*
X12136322Y-15728622D01*
X11268489Y-16308489D01*
X10688622Y-17176322D01*
X10484999Y-18200000D01*
X10688622Y-19223678D01*
X11268489Y-20091511D01*
X12508489Y-21331511D01*
X12573016Y-21374626D01*
X12519754Y-21374580D01*
X11628142Y-21742986D01*
X10945383Y-22424554D01*
X10575421Y-23315521D01*
X10574580Y-24280246D01*
X10575000Y-24281262D01*
X10575000Y-25725000D01*
X9100000Y-25725000D01*
X8076322Y-25928622D01*
X7208489Y-26508489D01*
X6628622Y-27376322D01*
X6425000Y-28400000D01*
X1500000Y-28400000D01*
X1500000Y-12565000D01*
X8975000Y-12565000D01*
X8975000Y-10160000D01*
X15075000Y-10160000D01*
X15297652Y-11279349D01*
X15931713Y-12228287D01*
X17371713Y-13668288D01*
X18320651Y-14302348D01*
X19440000Y-14525000D01*
X20559350Y-14302348D01*
X21508288Y-13668288D01*
X22142348Y-12719350D01*
X22365000Y-11600000D01*
X22142348Y-10480651D01*
X21508288Y-9531713D01*
X21261243Y-9284668D01*
X21154734Y-9125266D01*
X20995331Y-9018756D01*
X20685000Y-8708426D01*
X20685000Y-5760000D01*
X20481378Y-4736322D01*
X20449479Y-4688581D01*
X20363553Y-4231927D01*
X20051462Y-3746923D01*
X19575266Y-3421552D01*
X19083618Y-3321991D01*
X19033678Y-3288622D01*
X18010000Y-3085000D01*
X16986322Y-3288622D01*
X16938581Y-3320521D01*
X16481927Y-3406447D01*
X15996923Y-3718538D01*
X15671552Y-4194734D01*
X15571991Y-4686382D01*
X15538622Y-4736322D01*
X15335000Y-5760000D01*
X15335000Y-8984756D01*
X15297652Y-9040651D01*
X15075000Y-10160000D01*
X8975000Y-10160000D01*
X8975000Y-7565000D01*
X8693883Y-7565000D01*
X8749145Y-7509834D01*
X9424230Y-5884048D01*
X9425767Y-4123675D01*
X8753520Y-2496713D01*
X7758545Y-1500000D01*
X68242750Y-1500000D01*
X67250855Y-2490166D01*
X67250855Y-2490166D01*
G37*
X67250855Y-2490166D02*
X66575770Y-4115952D01*
X66574233Y-5876325D01*
X67246480Y-7503287D01*
X68490166Y-8749145D01*
X70115952Y-9424230D01*
X71876325Y-9425767D01*
X73503287Y-8753520D01*
X74500000Y-7758545D01*
X74500000Y-42242750D01*
X73509834Y-41250855D01*
X71884048Y-40575770D01*
X70123675Y-40574233D01*
X68496713Y-41246480D01*
X67250855Y-42490166D01*
X66575770Y-44115952D01*
X66574233Y-45876325D01*
X67246480Y-47503287D01*
X68241455Y-48500000D01*
X7757250Y-48500000D01*
X8749145Y-47509834D01*
X9424230Y-45884048D01*
X9425767Y-44123675D01*
X8753520Y-42496713D01*
X7509834Y-41250855D01*
X5884048Y-40575770D01*
X4123675Y-40574233D01*
X2496713Y-41246480D01*
X1500000Y-42241455D01*
X1500000Y-36400000D01*
X6424999Y-36400000D01*
X6628622Y-37423678D01*
X7208489Y-38291511D01*
X8422700Y-39505721D01*
X8422702Y-39505724D01*
X9290535Y-40085591D01*
X9684484Y-40163952D01*
X15037337Y-45516805D01*
X15053623Y-45598679D01*
X15633490Y-46466512D01*
X16633489Y-47466511D01*
X17501321Y-48046378D01*
X18525000Y-48250000D01*
X19548678Y-48046378D01*
X20416511Y-47466511D01*
X20996378Y-46598678D01*
X21200000Y-45575000D01*
X20996378Y-44551321D01*
X20416511Y-43683489D01*
X19416512Y-42683490D01*
X18548679Y-42103623D01*
X18466805Y-42087337D01*
X13051877Y-36672409D01*
X13035591Y-36590535D01*
X12455724Y-35722702D01*
X11702306Y-35219285D01*
X10991511Y-34508489D01*
X10123678Y-33928622D01*
X9100000Y-33724999D01*
X8076322Y-33928622D01*
X7208489Y-34508489D01*
X6628622Y-35376322D01*
X6424999Y-36400000D01*
X1500000Y-36400000D01*
X1500000Y-28400000D01*
X6425000Y-28400000D01*
X6628622Y-29423678D01*
X7208489Y-30291511D01*
X8076322Y-30871378D01*
X9100000Y-31075000D01*
X10750000Y-31075000D01*
X11773678Y-30871378D01*
X11843088Y-30825000D01*
X18706912Y-30825000D01*
X18776322Y-30871378D01*
X19800000Y-31075000D01*
X20800000Y-31075000D01*
X21823678Y-30871378D01*
X22691511Y-30291511D01*
X23271378Y-29423678D01*
X23475000Y-28400000D01*
X23320843Y-27625000D01*
X23395532Y-27625000D01*
X24535266Y-28764734D01*
X25321992Y-29290408D01*
X26250000Y-29475000D01*
X28956912Y-29475000D01*
X29026322Y-29521378D01*
X30050000Y-29725000D01*
X32313176Y-29725000D01*
X32575000Y-29777080D01*
X33464904Y-29600067D01*
X33575885Y-29525912D01*
X33598678Y-29521378D01*
X34034961Y-29229863D01*
X34072652Y-29419349D01*
X34706713Y-30368287D01*
X38059253Y-33720828D01*
X38634128Y-34104947D01*
X39008191Y-34354888D01*
X39925000Y-34537252D01*
X39925000Y-35368116D01*
X39900000Y-35493800D01*
X39900000Y-36800000D01*
X34711574Y-36800000D01*
X31943287Y-34031713D01*
X30994349Y-33397652D01*
X29875000Y-33175000D01*
X28925000Y-33175000D01*
X27805651Y-33397652D01*
X26856713Y-34031713D01*
X26222652Y-34980651D01*
X26000000Y-36100000D01*
X26222652Y-37219349D01*
X26856713Y-38168287D01*
X27805651Y-38802348D01*
X28598477Y-38960051D01*
X31431713Y-41793287D01*
X32380651Y-42427348D01*
X33500000Y-42650000D01*
X40113830Y-42650000D01*
X40122652Y-42694349D01*
X40756713Y-43643287D01*
X41705651Y-44277348D01*
X42825000Y-44500000D01*
X43944349Y-44277348D01*
X44893287Y-43643287D01*
X45527348Y-42694349D01*
X45750000Y-41575000D01*
X45750000Y-35594484D01*
X45775000Y-35468800D01*
X45775000Y-34675000D01*
X47940000Y-34675000D01*
X49059349Y-34452348D01*
X49900000Y-33890642D01*
X49900000Y-41575000D01*
X50122652Y-42694349D01*
X50756713Y-43643287D01*
X51705651Y-44277348D01*
X52825000Y-44500000D01*
X53944349Y-44277348D01*
X54893287Y-43643287D01*
X55527348Y-42694349D01*
X55680381Y-41925000D01*
X56575000Y-41925000D01*
X56575000Y-42700000D01*
X56797652Y-43819349D01*
X57431713Y-44768287D01*
X57731713Y-45068287D01*
X58680651Y-45702348D01*
X59800000Y-45924999D01*
X60919349Y-45702348D01*
X61868287Y-45068287D01*
X62502348Y-44119349D01*
X62724999Y-43000000D01*
X62502348Y-41880651D01*
X62425000Y-41764892D01*
X62425000Y-39502735D01*
X62525000Y-39000000D01*
X62302348Y-37880651D01*
X62244928Y-37794716D01*
X62202348Y-37580651D01*
X61568287Y-36631713D01*
X60619349Y-35997652D01*
X59500000Y-35775000D01*
X58380651Y-35997652D01*
X58264892Y-36075000D01*
X55750000Y-36075000D01*
X55750000Y-33396674D01*
X56031713Y-33818287D01*
X56980651Y-34452348D01*
X58100000Y-34675000D01*
X59219349Y-34452348D01*
X60168287Y-33818287D01*
X60193287Y-33793288D01*
X60827348Y-32844350D01*
X60832351Y-32819199D01*
X60887348Y-32736890D01*
X61007511Y-32132786D01*
X61110000Y-31617540D01*
X61110000Y-31350000D01*
X69247268Y-31350000D01*
X69750000Y-31449999D01*
X70869349Y-31227348D01*
X71818287Y-30593287D01*
X72452348Y-29644349D01*
X72674999Y-28525000D01*
X72452348Y-27405650D01*
X71818287Y-26456712D01*
X71718287Y-26356713D01*
X70769349Y-25722652D01*
X69650000Y-25500000D01*
X61110000Y-25500000D01*
X61110000Y-11025000D01*
X60887348Y-9905651D01*
X60887348Y-9905650D01*
X60253287Y-8956712D01*
X59628290Y-8331716D01*
X59628288Y-8331713D01*
X55828287Y-4531713D01*
X54879349Y-3897652D01*
X53760000Y-3675000D01*
X39800000Y-3675000D01*
X38680651Y-3897652D01*
X37731713Y-4531713D01*
X37097652Y-5480651D01*
X36875000Y-6600000D01*
X37097652Y-7719349D01*
X37731713Y-8668287D01*
X38680651Y-9302348D01*
X39800000Y-9525000D01*
X44649048Y-9525000D01*
X44475000Y-10400000D01*
X44697652Y-11519349D01*
X45331713Y-12468287D01*
X50675000Y-17811574D01*
X50675000Y-18800000D01*
X50897652Y-19919349D01*
X50901428Y-19925000D01*
X38975000Y-19925000D01*
X37855651Y-20147652D01*
X36906713Y-20781713D01*
X36816762Y-20916335D01*
X36643287Y-20656712D01*
X32525000Y-16538426D01*
X32525000Y-11901641D01*
X32585000Y-11600000D01*
X32585000Y-6620000D01*
X32362348Y-5500651D01*
X32362348Y-5500650D01*
X31728287Y-4551712D01*
X31708287Y-4531713D01*
X30759349Y-3897652D01*
X29640000Y-3675000D01*
X28520651Y-3897652D01*
X27571713Y-4531713D01*
X26937652Y-5480651D01*
X26715000Y-6600000D01*
X26735000Y-6700547D01*
X26735000Y-11298359D01*
X26675000Y-11600000D01*
X26675000Y-17750000D01*
X26897652Y-18869349D01*
X27531713Y-19818287D01*
X32088425Y-24375000D01*
X30050000Y-24375000D01*
X29026322Y-24578622D01*
X28956912Y-24625000D01*
X27254468Y-24625000D01*
X26114734Y-23485266D01*
X25328008Y-22959592D01*
X24400000Y-22775000D01*
X22693088Y-22775000D01*
X22623678Y-22728622D01*
X21600000Y-22525000D01*
X20909840Y-22525000D01*
X20900521Y-22511053D01*
X16887664Y-18498196D01*
X16871378Y-18416322D01*
X16291511Y-17548489D01*
X15051511Y-16308489D01*
X14183678Y-15728622D01*
X13160000Y-15524999D01*
X12136322Y-15728622D01*
X11268489Y-16308489D01*
X10688622Y-17176322D01*
X10484999Y-18200000D01*
X10688622Y-19223678D01*
X11268489Y-20091511D01*
X12508489Y-21331511D01*
X12573016Y-21374626D01*
X12519754Y-21374580D01*
X11628142Y-21742986D01*
X10945383Y-22424554D01*
X10575421Y-23315521D01*
X10574580Y-24280246D01*
X10575000Y-24281262D01*
X10575000Y-25725000D01*
X9100000Y-25725000D01*
X8076322Y-25928622D01*
X7208489Y-26508489D01*
X6628622Y-27376322D01*
X6425000Y-28400000D01*
X1500000Y-28400000D01*
X1500000Y-12565000D01*
X8975000Y-12565000D01*
X8975000Y-10160000D01*
X15075000Y-10160000D01*
X15297652Y-11279349D01*
X15931713Y-12228287D01*
X17371713Y-13668288D01*
X18320651Y-14302348D01*
X19440000Y-14525000D01*
X20559350Y-14302348D01*
X21508288Y-13668288D01*
X22142348Y-12719350D01*
X22365000Y-11600000D01*
X22142348Y-10480651D01*
X21508288Y-9531713D01*
X21261243Y-9284668D01*
X21154734Y-9125266D01*
X20995331Y-9018756D01*
X20685000Y-8708426D01*
X20685000Y-5760000D01*
X20481378Y-4736322D01*
X20449479Y-4688581D01*
X20363553Y-4231927D01*
X20051462Y-3746923D01*
X19575266Y-3421552D01*
X19083618Y-3321991D01*
X19033678Y-3288622D01*
X18010000Y-3085000D01*
X16986322Y-3288622D01*
X16938581Y-3320521D01*
X16481927Y-3406447D01*
X15996923Y-3718538D01*
X15671552Y-4194734D01*
X15571991Y-4686382D01*
X15538622Y-4736322D01*
X15335000Y-5760000D01*
X15335000Y-8984756D01*
X15297652Y-9040651D01*
X15075000Y-10160000D01*
X8975000Y-10160000D01*
X8975000Y-7565000D01*
X8693883Y-7565000D01*
X8749145Y-7509834D01*
X9424230Y-5884048D01*
X9425767Y-4123675D01*
X8753520Y-2496713D01*
X7758545Y-1500000D01*
X68242750Y-1500000D01*
X67250855Y-2490166D01*
M02*
