M48
;DRILL file {KiCad 4.0.7+dfsg1-1~bpo9+1} date Sun Apr 15 22:39:37 2018
;FORMAT={-:-/ absolute / inch / decimal}
FMAT,2
INCH,TZ
T1C0.031
T2C0.035
T3C0.039
T4C0.047
T5C0.118
%
G90
G05
M72
T1
X0.7091Y-0.1008
X0.7091Y-0.2268
X0.8075Y-0.9906
X0.8075Y-1.1165
X1.3272Y-1.5654
X1.3272Y-1.6913
X2.3425Y-1.3976
X2.3425Y-1.5236
T2
X0.3583Y-1.1181
X0.3583Y-1.2756
X0.3583Y-1.4331
X0.7264Y-1.7913
X0.8839Y-1.7913
X0.9606Y-1.4173
X1.1575Y-1.4173
X1.9134Y-0.7244
X2.1102Y-0.7244
X2.3543Y-1.6929
X2.5512Y-1.6929
T3
X0.1118Y-0.937
X0.1181Y-0.7165
X0.5118Y-0.937
X0.5181Y-0.7165
X0.7677Y-0.4567
X1.1669Y-0.2598
X1.1677Y-0.4567
X1.5669Y-0.2598
X1.685Y-1.5984
X1.8661Y-0.4094
X1.8819Y-1.5984
X1.8894Y-1.2462
X1.8907Y-1.06
X2.0787Y-1.5984
X2.2661Y-0.4094
X2.2894Y-1.2462
X2.2907Y-1.06
X2.7205Y-1.1191
X2.7205Y-1.3159
T4
X1.2825Y-1.065
X1.3612Y-0.8996
X1.4478Y-1.065
X1.5344Y-0.8996
X1.6132Y-1.065
T5
X0.1969Y-0.1969
X0.1969Y-1.7717
X2.7953Y-0.1969
X2.7953Y-1.7717
T0
M30
