<?xml version="1.0" standalone="no"?>
 <!DOCTYPE svg PUBLIC "-//W3C//DTD SVG 1.1//EN" 
 "http://www.w3.org/Graphics/SVG/1.1/DTD/svg11.dtd"> 
<svg xmlns="http://www.w3.org/2000/svg" version="1.1" 
    width="29.7002cm" height="21.0007cm" viewBox="0 0 116930 82680 ">
<title>SVG Picture created as channel_lm1875-B.Cu.svg date 2018/04/15 22:38:14 </title>
  <desc>Picture generated by PCBNEW </desc>
<g style="fill:#000000; fill-opacity:1;stroke:#000000; stroke-opacity:1;
stroke-linecap:round; stroke-linejoin:round; "
 transform="translate(0 0) scale(1 1)">
</g>
<g style="fill:#000000; fill-opacity:0.0; 
stroke:#000000; stroke-width:-0.000393701; stroke-opacity:1; 
stroke-linecap:round; stroke-linejoin:round;">
</g>
<g style="fill:#000000; fill-opacity:1.0; 
stroke:#000000; stroke-width:39.3701; stroke-opacity:1; 
stroke-linecap:round; stroke-linejoin:round;">
<rect x="-1998.03" y="-3256.91" width="33917.3" height="24940" rx="0" />
</g>
<g style="fill:#FFFFFF; fill-opacity:1.0; 
stroke:#FFFFFF; stroke-width:39.3701; stroke-opacity:1; 
stroke-linecap:round; stroke-linejoin:round;">
</g>
<g style="fill:#FFFFFF; fill-opacity:0.0; 
stroke:#FFFFFF; stroke-width:39.3701; stroke-opacity:1; 
stroke-linecap:round; stroke-linejoin:round;">
</g>
<g style="fill:#FFFFFF; fill-opacity:0.0; 
stroke:#FFFFFF; stroke-width:78.7402; stroke-opacity:1; 
stroke-linecap:round; stroke-linejoin:round;">
<path d="M2899 3656
L2558 4168
" />
<path d="M2558 3656
L2899 4168
" />
<path d="M2192 3900
L2363 3900
" />
<path d="M2363 4168
L2363 3656
L2119 3656
" />
<path d="M1924 3973
L1534 3973
" />
<path d="M1339 3656
L1022 3656
L1193 3851
L1120 3851
L1071 3876
L1047 3900
L1022 3949
L1022 4071
L1047 4119
L1071 4144
L1120 4168
L1266 4168
L1315 4144
L1339 4119
" />
</g>
<g style="fill:#FFFFFF; fill-opacity:0.0; 
stroke:#FFFFFF; stroke-width:59.0551; stroke-opacity:1; 
stroke-linecap:round; stroke-linejoin:round;">
<path d="M0 0
L29921 0
" />
<path d="M29921 0
L29921 19685
" />
<path d="M0 19685
L29921 19685
" />
<path d="M0 0
L0 19685
" />
</g>
<g style="fill:#FFFFFF; fill-opacity:0.0; 
stroke:#FFFFFF; stroke-width:709; stroke-opacity:1; 
stroke-linecap:round; stroke-linejoin:round;">
<path d="M14478 10787
L14478 10512
" />
<path d="M12824 10787
L12824 10512
" />
<path d="M16131 10787
L16131 10512
" />
<path d="M15344 9133
L15344 8858
" />
<path d="M13612 9133
L13612 8858
" />
</g>
<g style="fill:#FFFFFF; fill-opacity:1.0; 
stroke:#FFFFFF; stroke-width:0; stroke-opacity:1; 
stroke-linecap:round; stroke-linejoin:round;">
<circle cx="22907.5" cy="10600" r="393.701" /> 
</g>
<g style="fill:#FFFFFF; fill-opacity:1.0; 
stroke:#FFFFFF; stroke-width:39.3701; stroke-opacity:1; 
stroke-linecap:round; stroke-linejoin:round;">
</g>
<g style="fill:#FFFFFF; fill-opacity:1.0; 
stroke:#FFFFFF; stroke-width:0; stroke-opacity:1; 
stroke-linecap:round; stroke-linejoin:round;">
<polyline style="fill-rule:evenodd;"
points="19301,10206
19301,10993
18513,10993
18513,10206
19301,10206
" /> 
<circle cx="18893.7" cy="12461.6" r="393.701" /> 
</g>
<g style="fill:#FFFFFF; fill-opacity:1.0; 
stroke:#FFFFFF; stroke-width:39.3701; stroke-opacity:1; 
stroke-linecap:round; stroke-linejoin:round;">
</g>
<g style="fill:#FFFFFF; fill-opacity:1.0; 
stroke:#FFFFFF; stroke-width:0; stroke-opacity:1; 
stroke-linecap:round; stroke-linejoin:round;">
<polyline style="fill-rule:evenodd;"
points="22500,12855
22500,12068
23287,12068
23287,12855
22500,12855
" /> 
<circle cx="1118.11" cy="9370.08" r="393.701" /> 
</g>
<g style="fill:#FFFFFF; fill-opacity:1.0; 
stroke:#FFFFFF; stroke-width:39.3701; stroke-opacity:1; 
stroke-linecap:round; stroke-linejoin:round;">
</g>
<g style="fill:#FFFFFF; fill-opacity:1.0; 
stroke:#FFFFFF; stroke-width:0; stroke-opacity:1; 
stroke-linecap:round; stroke-linejoin:round;">
<circle cx="5118.11" cy="9370.08" r="393.701" /> 
</g>
<g style="fill:#FFFFFF; fill-opacity:1.0; 
stroke:#FFFFFF; stroke-width:39.3701; stroke-opacity:1; 
stroke-linecap:round; stroke-linejoin:round;">
</g>
<g style="fill:#FFFFFF; fill-opacity:1.0; 
stroke:#FFFFFF; stroke-width:0; stroke-opacity:1; 
stroke-linecap:round; stroke-linejoin:round;">
<circle cx="22661.4" cy="4094.49" r="393.701" /> 
</g>
<g style="fill:#FFFFFF; fill-opacity:1.0; 
stroke:#FFFFFF; stroke-width:39.3701; stroke-opacity:1; 
stroke-linecap:round; stroke-linejoin:round;">
</g>
<g style="fill:#FFFFFF; fill-opacity:1.0; 
stroke:#FFFFFF; stroke-width:0; stroke-opacity:1; 
stroke-linecap:round; stroke-linejoin:round;">
<circle cx="18661.4" cy="4094.49" r="393.701" /> 
</g>
<g style="fill:#FFFFFF; fill-opacity:1.0; 
stroke:#FFFFFF; stroke-width:39.3701; stroke-opacity:1; 
stroke-linecap:round; stroke-linejoin:round;">
</g>
<g style="fill:#FFFFFF; fill-opacity:1.0; 
stroke:#FFFFFF; stroke-width:0; stroke-opacity:1; 
stroke-linecap:round; stroke-linejoin:round;">
<circle cx="1181.1" cy="7165.35" r="393.701" /> 
</g>
<g style="fill:#FFFFFF; fill-opacity:1.0; 
stroke:#FFFFFF; stroke-width:39.3701; stroke-opacity:1; 
stroke-linecap:round; stroke-linejoin:round;">
</g>
<g style="fill:#FFFFFF; fill-opacity:1.0; 
stroke:#FFFFFF; stroke-width:0; stroke-opacity:1; 
stroke-linecap:round; stroke-linejoin:round;">
<circle cx="5181.1" cy="7165.35" r="393.701" /> 
</g>
<g style="fill:#FFFFFF; fill-opacity:1.0; 
stroke:#FFFFFF; stroke-width:39.3701; stroke-opacity:1; 
stroke-linecap:round; stroke-linejoin:round;">
</g>
<g style="fill:#FFFFFF; fill-opacity:1.0; 
stroke:#FFFFFF; stroke-width:0; stroke-opacity:1; 
stroke-linecap:round; stroke-linejoin:round;">
<circle cx="15669.3" cy="2598.43" r="393.701" /> 
</g>
<g style="fill:#FFFFFF; fill-opacity:1.0; 
stroke:#FFFFFF; stroke-width:39.3701; stroke-opacity:1; 
stroke-linecap:round; stroke-linejoin:round;">
</g>
<g style="fill:#FFFFFF; fill-opacity:1.0; 
stroke:#FFFFFF; stroke-width:0; stroke-opacity:1; 
stroke-linecap:round; stroke-linejoin:round;">
<circle cx="11669.3" cy="2598.43" r="393.701" /> 
</g>
<g style="fill:#FFFFFF; fill-opacity:1.0; 
stroke:#FFFFFF; stroke-width:39.3701; stroke-opacity:1; 
stroke-linecap:round; stroke-linejoin:round;">
</g>
<g style="fill:#FFFFFF; fill-opacity:1.0; 
stroke:#FFFFFF; stroke-width:0; stroke-opacity:1; 
stroke-linecap:round; stroke-linejoin:round;">
<circle cx="11677.2" cy="4566.93" r="393.701" /> 
</g>
<g style="fill:#FFFFFF; fill-opacity:1.0; 
stroke:#FFFFFF; stroke-width:39.3701; stroke-opacity:1; 
stroke-linecap:round; stroke-linejoin:round;">
</g>
<g style="fill:#FFFFFF; fill-opacity:1.0; 
stroke:#FFFFFF; stroke-width:0; stroke-opacity:1; 
stroke-linecap:round; stroke-linejoin:round;">
<circle cx="7677.17" cy="4566.93" r="393.701" /> 
</g>
<g style="fill:#FFFFFF; fill-opacity:1.0; 
stroke:#FFFFFF; stroke-width:39.3701; stroke-opacity:1; 
stroke-linecap:round; stroke-linejoin:round;">
</g>
<g style="fill:#FFFFFF; fill-opacity:1.0; 
stroke:#FFFFFF; stroke-width:0; stroke-opacity:1; 
stroke-linecap:round; stroke-linejoin:round;">
<circle cx="1968.5" cy="17716.5" r="1181.1" /> 
</g>
<g style="fill:#FFFFFF; fill-opacity:1.0; 
stroke:#FFFFFF; stroke-width:39.3701; stroke-opacity:1; 
stroke-linecap:round; stroke-linejoin:round;">
</g>
<g style="fill:#FFFFFF; fill-opacity:1.0; 
stroke:#FFFFFF; stroke-width:0; stroke-opacity:1; 
stroke-linecap:round; stroke-linejoin:round;">
<circle cx="27952.8" cy="17716.5" r="1181.1" /> 
</g>
<g style="fill:#FFFFFF; fill-opacity:1.0; 
stroke:#FFFFFF; stroke-width:39.3701; stroke-opacity:1; 
stroke-linecap:round; stroke-linejoin:round;">
</g>
<g style="fill:#FFFFFF; fill-opacity:1.0; 
stroke:#FFFFFF; stroke-width:0; stroke-opacity:1; 
stroke-linecap:round; stroke-linejoin:round;">
<circle cx="27952.8" cy="1968.5" r="1181.1" /> 
</g>
<g style="fill:#FFFFFF; fill-opacity:1.0; 
stroke:#FFFFFF; stroke-width:39.3701; stroke-opacity:1; 
stroke-linecap:round; stroke-linejoin:round;">
</g>
<g style="fill:#FFFFFF; fill-opacity:1.0; 
stroke:#FFFFFF; stroke-width:0; stroke-opacity:1; 
stroke-linecap:round; stroke-linejoin:round;">
<circle cx="1968.5" cy="1968.5" r="1181.1" /> 
</g>
<g style="fill:#FFFFFF; fill-opacity:1.0; 
stroke:#FFFFFF; stroke-width:39.3701; stroke-opacity:1; 
stroke-linecap:round; stroke-linejoin:round;">
</g>
<g style="fill:#FFFFFF; fill-opacity:1.0; 
stroke:#FFFFFF; stroke-width:0; stroke-opacity:1; 
stroke-linecap:round; stroke-linejoin:round;">
<circle cx="23425.2" cy="13976.4" r="393.701" /> 
</g>
<g style="fill:#FFFFFF; fill-opacity:1.0; 
stroke:#FFFFFF; stroke-width:39.3701; stroke-opacity:1; 
stroke-linecap:round; stroke-linejoin:round;">
</g>
<g style="fill:#FFFFFF; fill-opacity:1.0; 
stroke:#FFFFFF; stroke-width:0; stroke-opacity:1; 
stroke-linecap:round; stroke-linejoin:round;">
<polyline style="fill-rule:evenodd;"
points="23818,15629
23031,15629
23031,14842
23818,14842
23818,15629
" /> 
<circle cx="13271.7" cy="15653.5" r="393.701" /> 
</g>
<g style="fill:#FFFFFF; fill-opacity:1.0; 
stroke:#FFFFFF; stroke-width:39.3701; stroke-opacity:1; 
stroke-linecap:round; stroke-linejoin:round;">
</g>
<g style="fill:#FFFFFF; fill-opacity:1.0; 
stroke:#FFFFFF; stroke-width:0; stroke-opacity:1; 
stroke-linecap:round; stroke-linejoin:round;">
<polyline style="fill-rule:evenodd;"
points="13665,17307
12877,17307
12877,16519
13665,16519
13665,17307
" /> 
<circle cx="8074.8" cy="9905.51" r="393.701" /> 
</g>
<g style="fill:#FFFFFF; fill-opacity:1.0; 
stroke:#FFFFFF; stroke-width:39.3701; stroke-opacity:1; 
stroke-linecap:round; stroke-linejoin:round;">
</g>
<g style="fill:#FFFFFF; fill-opacity:1.0; 
stroke:#FFFFFF; stroke-width:0; stroke-opacity:1; 
stroke-linecap:round; stroke-linejoin:round;">
<polyline style="fill-rule:evenodd;"
points="8468,11559
7681,11559
7681,10771
8468,10771
8468,11559
" /> 
<circle cx="7090.55" cy="1007.87" r="393.701" /> 
</g>
<g style="fill:#FFFFFF; fill-opacity:1.0; 
stroke:#FFFFFF; stroke-width:39.3701; stroke-opacity:1; 
stroke-linecap:round; stroke-linejoin:round;">
</g>
<g style="fill:#FFFFFF; fill-opacity:1.0; 
stroke:#FFFFFF; stroke-width:0; stroke-opacity:1; 
stroke-linecap:round; stroke-linejoin:round;">
<polyline style="fill-rule:evenodd;"
points="7484,2661
6696,2661
6696,1874
7484,1874
7484,2661
" /> 
</g>
<g style="fill:#FFFFFF; fill-opacity:1.0; 
stroke:#FFFFFF; stroke-width:780; stroke-opacity:1; 
stroke-linecap:round; stroke-linejoin:round;">
</g>
<g style="fill:#FFFFFF; fill-opacity:0.0; 
stroke:#FFFFFF; stroke-width:780; stroke-opacity:1; 
stroke-linecap:round; stroke-linejoin:round;">
<path d="M16850 15594
L16850 16374
" />
<path d="M18818 15594
L18818 16374
" />
<path d="M20787 15594
L20787 16374
" />
<path d="M26814 13159
L27594 13159
" />
<path d="M26814 11190
L27594 11190
" />
</g>
<g style="fill:#FFFFFF; fill-opacity:0.0; 
stroke:#FFFFFF; stroke-width:787.402; stroke-opacity:1; 
stroke-linecap:round; stroke-linejoin:round;">
<path d="M3582 11181
L3582 11181
" />
<path d="M3582 12755
L3582 12755
" />
<path d="M3582 14330
L3582 14330
" />
<path d="M7263 17913
L7263 17913
" />
<path d="M8838 17913
L8838 17913
" />
</g>
<g style="fill:#FFFFFF; fill-opacity:0.0; 
stroke:#FFFFFF; stroke-width:0; stroke-opacity:1; 
stroke-linecap:round; stroke-linejoin:round;">
</g>
<g style="fill:#FFFFFF; fill-opacity:1.0; 
stroke:#FFFFFF; stroke-width:0; stroke-opacity:1; 
stroke-linecap:round; stroke-linejoin:round;">
<polyline style="fill-rule:evenodd;"
points="11968,13779
11968,14566
11181,14566
11181,13779
11968,13779
" /> 
<circle cx="9606.3" cy="14173.2" r="393.701" /> 
</g>
<g style="fill:#FFFFFF; fill-opacity:1.0; 
stroke:#FFFFFF; stroke-width:39.3701; stroke-opacity:1; 
stroke-linecap:round; stroke-linejoin:round;">
</g>
<g style="fill:#FFFFFF; fill-opacity:1.0; 
stroke:#FFFFFF; stroke-width:0; stroke-opacity:1; 
stroke-linecap:round; stroke-linejoin:round;">
<polyline style="fill-rule:evenodd;"
points="21496,6850
21496,7637
20708,7637
20708,6850
21496,6850
" /> 
<circle cx="19133.9" cy="7244.09" r="393.701" /> 
</g>
<g style="fill:#FFFFFF; fill-opacity:1.0; 
stroke:#FFFFFF; stroke-width:39.3701; stroke-opacity:1; 
stroke-linecap:round; stroke-linejoin:round;">
</g>
<g style="fill:#FFFFFF; fill-opacity:1.0; 
stroke:#FFFFFF; stroke-width:0; stroke-opacity:1; 
stroke-linecap:round; stroke-linejoin:round;">
<polyline style="fill-rule:evenodd;"
points="23149,17322
23149,16535
23937,16535
23937,17322
23149,17322
" /> 
<circle cx="25511.8" cy="16929.1" r="393.701" /> 
</g>
<g style="fill:#FFFFFF; fill-opacity:1.0; 
stroke:#FFFFFF; stroke-width:39.3701; stroke-opacity:1; 
stroke-linecap:round; stroke-linejoin:round;">
</g>
<g style="fill:#FFFFFF; fill-opacity:1.0; 
stroke:#FFFFFF; stroke-width:984.252; stroke-opacity:1; 
stroke-linecap:round; stroke-linejoin:round;">
</g>
<g style="fill:#FFFFFF; fill-opacity:0.0; 
stroke:#FFFFFF; stroke-width:984.252; stroke-opacity:1; 
stroke-linecap:round; stroke-linejoin:round;">
<path d="M3582 14330
L4060 14808
" />
<path d="M4060 14808
L4159 14808
" />
<path d="M7293 17942
L6899 17549
" />
</g>
<g style="fill:#FFFFFF; fill-opacity:0.0; 
stroke:#FFFFFF; stroke-width:787.402; stroke-opacity:1; 
stroke-linecap:round; stroke-linejoin:round;">
<path d="M4159 14808
L6899 17549
" />
<path d="M7553 9537
L5669 7653
" />
</g>
<g style="fill:#FFFFFF; fill-opacity:0.0; 
stroke:#FFFFFF; stroke-width:984.252; stroke-opacity:1; 
stroke-linecap:round; stroke-linejoin:round;">
<path d="M5181 7165
L5669 7653
" />
</g>
<g style="fill:#FFFFFF; fill-opacity:0.0; 
stroke:#FFFFFF; stroke-width:787.402; stroke-opacity:1; 
stroke-linecap:round; stroke-linejoin:round;">
<path d="M7553 9921
L7553 9537
" />
<path d="M8110 9921
L7553 9921
" />
<path d="M9606 9921
L10334 10649
" />
<path d="M10334 10649
L11830 10649
" />
<path d="M8503 9921
L9606 9921
" />
</g>
<g style="fill:#FFFFFF; fill-opacity:0.0; 
stroke:#FFFFFF; stroke-width:984.252; stroke-opacity:1; 
stroke-linecap:round; stroke-linejoin:round;">
<path d="M8110 9921
L8503 9921
" />
<path d="M12824 10649
L11830 10649
" />
<path d="M7090 2267
L7090 3645
" />
<path d="M7086 3649
L7086 4000
" />
<path d="M7090 3645
L7086 3649
" />
</g>
<g style="fill:#FFFFFF; fill-opacity:0.0; 
stroke:#FFFFFF; stroke-width:1181.1; stroke-opacity:1; 
stroke-linecap:round; stroke-linejoin:round;">
<path d="M7086 4000
L7653 4566
" />
</g>
<g style="fill:#FFFFFF; fill-opacity:0.0; 
stroke:#FFFFFF; stroke-width:787.402; stroke-opacity:1; 
stroke-linecap:round; stroke-linejoin:round;">
<path d="M7653 4566
L7653 4267
" />
</g>
<g style="fill:#FFFFFF; fill-opacity:0.0; 
stroke:#FFFFFF; stroke-width:1181.1; stroke-opacity:1; 
stroke-linecap:round; stroke-linejoin:round;">
<path d="M23425 15236
L23425 16811
" />
<path d="M23425 16811
L23543 16929
" />
<path d="M20797 16368
L20797 15196
" />
<path d="M20797 15196
L20797 14242
" />
<path d="M23464 15354
L20954 15354
" />
<path d="M20954 15354
L20797 15196
" />
<path d="M20797 10738
L20797 14242
" />
<path d="M16131 10649
L18869 10649
" />
<path d="M18869 10649
L20885 10649
" />
<path d="M20885 10649
L20797 10738
" />
<path d="M20797 14242
L20797 15639
" />
<path d="M20826 15905
L20797 15935
" />
<path d="M13188 15639
L11761 14212
" />
<path d="M11761 14212
L11387 14212
" />
<path d="M16860 15246
L16860 13973
" />
<path d="M16860 15935
L16860 15246
" />
<path d="M16860 16368
L16860 15246
" />
<path d="M16870 13964
L16870 12500
" />
<path d="M16860 13973
L16870 13964
" />
<path d="M16860 15639
L13188 15639
" />
<path d="M15798 12461
L18893 12461
" />
<path d="M14478 11141
L15798 12461
" />
<path d="M14478 10649
L14478 11141
" />
<path d="M18874 12500
L16870 12500
" />
<path d="M14487 10629
L14487 10738
" />
<path d="M21102 7401
L21102 6535
" />
<path d="M21102 6535
L18661 4094
" />
<path d="M15669 2598
L21165 2598
" />
<path d="M21165 2598
L22661 4094
" />
<path d="M22907 10600
L22907 8976
" />
<path d="M22907 8976
L22907 4340
" />
<path d="M15344 8996
L22887 8996
" />
<path d="M22887 8996
L22907 8976
" />
<path d="M22907 4340
L22661 4094
" />
<path d="M22907 11190
L27421 11190
" />
<path d="M27421 11190
L27460 11230
" />
<path d="M22907 10530
L22907 11190
" />
<path d="M22907 11190
L22907 12447
" />
<path d="M22907 12447
L22893 12461
" />
<path d="M22883 12490
L22874 12500
" />
<path d="M11677 4566
L11677 2606
" />
<path d="M11677 2606
L11669 2598
" />
<path d="M13612 8996
L13612 8946
" />
<path d="M13612 8946
L11653 6988
" />
<path d="M11653 6988
L11653 4566
" />
</g>
<g style="fill:#FFFFFF; fill-opacity:0.0; 
stroke:#FFFFFF; stroke-width:787.402; stroke-opacity:1; 
stroke-linecap:round; stroke-linejoin:round;">
<path d="M3582 11181
L8188 11181
" />
<path d="M5118 11181
L4232 11181
" />
<path d="M5118 9370
L5118 9926
" />
<path d="M5118 9926
L5118 11181
" />
<path d="M7795 11181
L7791 11185
" />
</g>
<g style="fill:#FFFFFF; fill-opacity:0.0; 
stroke:#FFFFFF; stroke-width:984.252; stroke-opacity:1; 
stroke-linecap:round; stroke-linejoin:round;">
<path d="M8188 11181
L7795 11181
" />
<path d="M3582 11181
L4232 11181
" />
</g>
<g style="fill:#FFFFFF; fill-opacity:1.0; 
stroke:#FFFFFF; stroke-width:98.4252; stroke-opacity:1; 
stroke-linecap:round; stroke-linejoin:round;">
<polyline style="fill-rule:evenodd;"
points="26476,980
26210,1620
26210,2313
26474,2954
26964,3444
27604,3710
28297,3710
28938,3446
29330,3054
29330,16631
28940,16240
28300,15974
27607,15974
26967,16238
26476,16728
26210,17368
26210,18061
26474,18702
26866,19094
3054,19094
3444,18704
3710,18064
3710,17371
3446,16730
2956,16240
2316,15974
1623,15974
982,16238
590,16630
590,14330
2529,14330
2609,14733
2837,15075
3316,15553
3316,15553
3657,15781
3812,15812
5920,17920
5926,17952
6154,18293
6548,18687
6890,18915
7293,18996
7696,18915
8037,18687
8266,18345
8346,17942
8266,17539
8037,17198
7644,16804
7302,16576
7270,16569
5138,14437
5132,14405
4903,14064
4607,13865
4327,13586
3985,13357
3582,13277
3179,13357
2837,13586
2609,13927
2529,14330
590,14330
590,11181
2529,11181
2609,11584
2837,11925
3179,12154
3582,12234
4232,12234
4635,12154
4662,12135
7364,12135
7392,12154
7795,12234
8188,12234
8591,12154
8933,11925
9161,11584
9242,11181
9181,10875
9210,10875
9659,11324
9969,11531
10334,11604
11400,11604
11427,11622
11830,11702
12721,11702
12824,11723
13175,11653
13218,11624
13227,11622
13399,11507
13414,11582
13664,11956
14983,13275
15210,13427
15357,13525
15718,13597
15718,13924
15708,13973
15708,14488
13665,14488
12576,13398
12202,13148
11761,13061
11387,13061
10947,13148
10573,13398
10323,13771
10236,14212
10323,14653
10573,15026
10947,15276
11259,15338
12374,16454
12748,16703
13188,16791
15792,16791
15796,16808
16045,17182
16419,17432
16860,17519
17300,17432
17674,17182
17924,16808
18011,16368
18011,14013
18021,13964
18021,13651
18874,13651
19314,13563
19645,13342
19645,16368
19733,16808
19982,17182
20356,17432
20797,17519
21237,17432
21611,17182
21861,16808
21921,16505
22273,16505
22273,16811
22361,17251
22610,17625
22729,17743
23102,17993
23543,18080
23983,17993
24357,17743
24607,17369
24694,16929
24607,16488
24576,16442
24576,15552
24616,15354
24528,14913
24505,14879
24489,14795
24239,14421
23865,14172
23425,14084
22984,14172
22938,14202
21948,14202
21948,13148
22059,13314
22433,13563
22874,13651
23314,13563
23688,13314
23698,13304
23947,12930
23949,12920
23971,12888
24018,12650
24059,12447
24059,12342
27262,12342
27460,12381
27901,12294
28274,12044
28524,11671
28612,11230
28524,10789
28274,10416
28235,10376
27861,10127
27421,10039
24059,10039
24059,4340
23971,3899
23971,3899
23721,3526
23475,3280
23475,3280
21979,1784
21606,1534
21165,1446
15669,1446
15228,1534
14855,1784
14605,2157
14517,2598
14605,3039
14855,3412
15228,3662
15669,3750
17578,3750
17509,4094
17597,4535
17847,4908
19950,7012
19950,7401
20038,7842
20039,7844
15344,7844
14903,7932
14530,8181
14494,8234
14426,8132
12805,6511
12805,4685
12828,4566
12828,2606
12741,2165
12741,2165
12491,1792
12483,1784
12109,1534
11669,1446
11228,1534
10855,1784
10605,2157
10517,2598
10525,2638
10525,4448
10501,4566
10501,6988
10589,7428
10839,7802
12633,9596
11830,9596
11427,9676
11400,9694
10730,9694
10281,9246
9971,9039
9606,8966
8934,8966
8906,8948
8503,8868
8232,8868
8228,8862
6648,7282
6642,7250
6413,6908
5925,6420
5584,6192
5181,6112
4778,6192
4436,6420
4208,6762
4127,7165
4208,7568
4436,7910
4924,8398
4950,8415
4929,8415
4578,8560
4309,8828
4163,9179
4163,9559
4163,9559
4163,10127
3582,10127
3179,10208
2837,10436
2609,10778
2529,11181
590,11181
590,4946
3533,4946
3533,4000
5935,4000
6022,4440
6272,4814
6839,5381
7212,5630
7653,5718
8094,5630
8467,5381
8717,5007
8805,4566
8717,4126
8467,3752
8370,3655
8328,3592
8265,3550
8143,3428
8143,2267
8063,1864
8050,1845
8017,1666
7894,1475
7706,1347
7513,1307
7493,1294
7090,1214
6687,1294
6668,1307
6488,1341
6298,1463
6169,1651
6130,1845
6117,1864
6037,2267
6037,3537
6022,3559
5935,4000
3533,4000
3533,2978
3422,2978
3444,2956
3710,2316
3710,1623
3446,982
3054,590
26867,590
26476,980
" /> 
</g> 
</svg>
