M48
;DRILL file {KiCad 4.0.7+dfsg1-1~bpo9+1} date Wed Apr 18 09:45:31 2018
;FORMAT={-:-/ absolute / inch / decimal}
FMAT,2
INCH,TZ
T1C0.031
T2C0.035
T3C0.039
T4C0.047
T5C0.051
T6C0.079
T7C0.118
%
G90
G05
M72
T1
X0.7091Y-0.2189
X0.7091Y-0.3449
X0.7091Y-2.3055
X0.7091Y-2.4315
X0.8075Y-1.1087
X0.8075Y-1.2346
X0.8075Y-3.1953
X0.8075Y-3.3213
X1.3272Y-1.6835
X1.3272Y-1.8094
X1.3272Y-3.7701
X1.3272Y-3.8961
X2.3425Y-1.5157
X2.3425Y-1.6417
X2.3425Y-3.6024
X2.3425Y-3.7283
X6.5752Y-0.2189
X6.5752Y-0.3449
X6.5752Y-2.3055
X6.5752Y-2.4315
X6.6736Y-1.1087
X6.6736Y-1.2346
X6.6736Y-3.1953
X6.6736Y-3.3213
X7.1933Y-1.6835
X7.1933Y-1.8094
X7.1933Y-3.7701
X7.1933Y-3.8961
X8.2087Y-1.5157
X8.2087Y-1.6417
X8.2087Y-3.6024
X8.2087Y-3.7283
X12.4413Y-0.2189
X12.4413Y-0.3449
X12.4413Y-2.3055
X12.4413Y-2.4315
X12.5398Y-1.1087
X12.5398Y-1.2346
X12.5398Y-3.1953
X12.5398Y-3.3213
X13.0594Y-1.6835
X13.0594Y-1.8094
X13.0594Y-3.7701
X13.0594Y-3.8961
X14.0748Y-1.5157
X14.0748Y-1.6417
X14.0748Y-3.6024
X14.0748Y-3.7283
T2
X0.3583Y-1.2362
X0.3583Y-1.3937
X0.3583Y-1.5512
X0.3583Y-3.3228
X0.3583Y-3.4803
X0.3583Y-3.6378
X0.7264Y-1.9094
X0.7264Y-3.9961
X0.8839Y-1.9094
X0.8839Y-3.9961
X0.9449Y-4.7146
X0.9606Y-1.5354
X0.9606Y-3.622
X1.1024Y-4.7146
X1.1575Y-1.5354
X1.1575Y-3.622
X1.8898Y-4.7146
X1.9134Y-0.8425
X1.9134Y-2.9291
X2.0472Y-4.7146
X2.1102Y-0.8425
X2.1102Y-2.9291
X2.3543Y-1.811
X2.3543Y-3.8976
X2.5512Y-1.811
X2.5512Y-3.8976
X6.2244Y-1.2362
X6.2244Y-1.3937
X6.2244Y-1.5512
X6.2244Y-3.3228
X6.2244Y-3.4803
X6.2244Y-3.6378
X6.5925Y-1.9094
X6.5925Y-3.9961
X6.75Y-1.9094
X6.75Y-3.9961
X6.811Y-4.7146
X6.8268Y-1.5354
X6.8268Y-3.622
X6.9685Y-4.7146
X7.0236Y-1.5354
X7.0236Y-3.622
X7.7559Y-4.7146
X7.7795Y-0.8425
X7.7795Y-2.9291
X7.9134Y-4.7146
X7.9764Y-0.8425
X7.9764Y-2.9291
X8.2205Y-1.811
X8.2205Y-3.8976
X8.4173Y-1.811
X8.4173Y-3.8976
X12.0906Y-1.2362
X12.0906Y-1.3937
X12.0906Y-1.5512
X12.0906Y-3.3228
X12.0906Y-3.4803
X12.0906Y-3.6378
X12.4587Y-1.9094
X12.4587Y-3.9961
X12.6161Y-1.9094
X12.6161Y-3.9961
X12.6772Y-4.7146
X12.6929Y-1.5354
X12.6929Y-3.622
X12.8346Y-4.7146
X12.8898Y-1.5354
X12.8898Y-3.622
X13.622Y-4.7146
X13.6457Y-0.8425
X13.6457Y-2.9291
X13.7795Y-4.7146
X13.8425Y-0.8425
X13.8425Y-2.9291
X14.0866Y-1.811
X14.0866Y-3.8976
X14.2835Y-1.811
X14.2835Y-3.8976
T3
X0.1118Y-1.0551
X0.1118Y-3.1417
X0.1181Y-0.8346
X0.1181Y-2.9213
X0.5118Y-1.0551
X0.5118Y-3.1417
X0.5181Y-0.8346
X0.5181Y-2.9213
X0.7677Y-0.5748
X0.7677Y-2.6614
X1.1669Y-0.378
X1.1669Y-2.4646
X1.1677Y-0.5748
X1.1677Y-2.6614
X1.5669Y-0.378
X1.5669Y-2.4646
X1.685Y-1.7165
X1.685Y-3.8031
X1.8661Y-0.5276
X1.8661Y-2.6142
X1.8819Y-1.7165
X1.8819Y-3.8031
X1.8894Y-1.3643
X1.8894Y-3.4509
X1.8907Y-1.1781
X1.8907Y-3.2647
X2.0787Y-1.7165
X2.0787Y-3.8031
X2.2661Y-0.5276
X2.2661Y-2.6142
X2.2894Y-1.3643
X2.2894Y-3.4509
X2.2907Y-1.1781
X2.2907Y-3.2647
X2.7205Y-1.2372
X2.7205Y-1.4341
X2.7205Y-3.3238
X2.7205Y-3.5207
X5.978Y-1.0551
X5.978Y-3.1417
X5.9843Y-0.8346
X5.9843Y-2.9213
X6.378Y-1.0551
X6.378Y-3.1417
X6.3843Y-0.8346
X6.3843Y-2.9213
X6.6339Y-0.5748
X6.6339Y-2.6614
X7.0331Y-0.378
X7.0331Y-2.4646
X7.0339Y-0.5748
X7.0339Y-2.6614
X7.4331Y-0.378
X7.4331Y-2.4646
X7.5512Y-1.7165
X7.5512Y-3.8031
X7.7323Y-0.5276
X7.7323Y-2.6142
X7.748Y-1.7165
X7.748Y-3.8031
X7.7555Y-1.3643
X7.7555Y-3.4509
X7.7569Y-1.1781
X7.7569Y-3.2647
X7.9449Y-1.7165
X7.9449Y-3.8031
X8.1323Y-0.5276
X8.1323Y-2.6142
X8.1555Y-1.3643
X8.1555Y-3.4509
X8.1569Y-1.1781
X8.1569Y-3.2647
X8.5866Y-1.2372
X8.5866Y-1.4341
X8.5866Y-3.3238
X8.5866Y-3.5207
X11.8441Y-1.0551
X11.8441Y-3.1417
X11.8504Y-0.8346
X11.8504Y-2.9213
X12.2441Y-1.0551
X12.2441Y-3.1417
X12.2504Y-0.8346
X12.2504Y-2.9213
X12.5Y-0.5748
X12.5Y-2.6614
X12.8992Y-0.378
X12.8992Y-2.4646
X12.9Y-0.5748
X12.9Y-2.6614
X13.2992Y-0.378
X13.2992Y-2.4646
X13.4173Y-1.7165
X13.4173Y-3.8031
X13.5984Y-0.5276
X13.5984Y-2.6142
X13.6142Y-1.7165
X13.6142Y-3.8031
X13.6217Y-1.3643
X13.6217Y-3.4509
X13.623Y-1.1781
X13.623Y-3.2647
X13.811Y-1.7165
X13.811Y-3.8031
X13.9984Y-0.5276
X13.9984Y-2.6142
X14.0217Y-1.3643
X14.0217Y-3.4509
X14.023Y-1.1781
X14.023Y-3.2647
X14.4528Y-1.2372
X14.4528Y-1.4341
X14.4528Y-3.3238
X14.4528Y-3.5207
T4
X1.2825Y-1.1831
X1.2825Y-3.2697
X1.3612Y-1.0177
X1.3612Y-3.1043
X1.4478Y-1.1831
X1.4478Y-3.2697
X1.5344Y-1.0177
X1.5344Y-3.1043
X1.6132Y-1.1831
X1.6132Y-3.2697
X7.1486Y-1.1831
X7.1486Y-3.2697
X7.2274Y-1.0177
X7.2274Y-3.1043
X7.314Y-1.1831
X7.314Y-3.2697
X7.4006Y-1.0177
X7.4006Y-3.1043
X7.4793Y-1.1831
X7.4793Y-3.2697
X13.0148Y-1.1831
X13.0148Y-3.2697
X13.0935Y-1.0177
X13.0935Y-3.1043
X13.1801Y-1.1831
X13.1801Y-3.2697
X13.2667Y-1.0177
X13.2667Y-3.1043
X13.3455Y-1.1831
X13.3455Y-3.2697
T5
X1.2925Y-4.5673
X1.3035Y-4.8232
X1.4728Y-4.3705
X1.5725Y-4.647
X1.6894Y-4.6972
X7.1587Y-4.5673
X7.1697Y-4.8232
X7.339Y-4.3705
X7.4387Y-4.647
X7.5555Y-4.6972
X13.0248Y-4.5673
X13.0358Y-4.8232
X13.2051Y-4.3705
X13.3048Y-4.647
X13.4217Y-4.6972
T6
X0.5906Y-4.3701
X0.5906Y-4.8031
X2.4016Y-4.3701
X2.4016Y-4.8031
X6.4567Y-4.3701
X6.4567Y-4.8031
X8.2677Y-4.3701
X8.2677Y-4.8031
X12.3228Y-4.3701
X12.3228Y-4.8031
X14.1339Y-4.3701
X14.1339Y-4.8031
T7
X0.1969Y-0.315
X0.1969Y-1.8898
X0.1969Y-2.4016
X0.1969Y-3.9764
X2.7953Y-0.315
X2.7953Y-1.8898
X2.7953Y-2.4016
X2.7953Y-3.9764
X6.063Y-0.315
X6.063Y-1.8898
X6.063Y-2.4016
X6.063Y-3.9764
X8.6614Y-0.315
X8.6614Y-1.8898
X8.6614Y-2.4016
X8.6614Y-3.9764
X11.9291Y-0.315
X11.9291Y-1.8898
X11.9291Y-2.4016
X11.9291Y-3.9764
X14.5276Y-0.315
X14.5276Y-1.8898
X14.5276Y-2.4016
X14.5276Y-3.9764
T0
M30
